CheltenhamClassicItalic.glyphspackage
{
glyphname = exclam;
layers = (
{
hints = (
{
horizontal = 1;
place = (-6,127);
type = Stem;
},
{
place = (43,126);
type = Stem;
}
);
layerId = "C81813BF-B5F5-4CE8-9C14-91E07284E92C";
shapes = (
{
closed = 1;
nodes = (
(320,711,o),
(304,742,o),
(263,742,cs),
(231,742,o),
(210,711,o),
(202,677,cs),
(187,618,o),
(190,567,o),
(177,467,cs),
(166,376,o),
(139,276,o),
(126,211,cs),
(125,206,o),
(133,195,o),
(147,195,cs),
(155,195,o),
(161,198,o),
(163,202,c),
(181,265,o),
(207,365,o),
(239,451,cs),
(275,546,o),
(301,588,o),
(316,648,cs),
(319,658,o),
(320,669,o),
(320,679,cs)
);
},
{
closed = 1;
nodes = (
(172,92,o),
(144,121,o),
(108,121,cs),
(73,121,o),
(46,92,o),
(46,58,cs),
(46,23,o),
(73,-6,o),
(108,-6,cs),
(144,-6,o),
(172,23,o),
(172,58,cs)
);
}
);
width = 298;
}
);
unicode = 33;
}
{
glyphname = quotedbl;
layers = (
{
layerId = "C81813BF-B5F5-4CE8-9C14-91E07284E92C";
shapes = (
{
closed = 1;
nodes = (
(436,720,o),
(416,740,o),
(385,740,cs),
(360,740,o),
(341,724,o),
(335,697,cs),
(326,661,o),
(320,547,o),
(311,457,c),
(313,452,o),
(317,446,o),
(325,446,cs),
(332,446,o),
(334,447,o),
(338,450,c),
(374,535,o),
(425,637,o),
(434,672,c),
(435,679,o),
(436,685,o),
(436,691,cs)
);
},
{
closed = 1;
nodes = (
(272,720,o),
(252,740,o),
(221,740,cs),
(196,740,o),
(177,724,o),
(171,697,cs),
(162,661,o),
(156,547,o),
(147,457,c),
(149,452,o),
(153,446,o),
(161,446,cs),
(168,446,o),
(170,447,o),
(174,450,c),
(210,535,o),
(261,637,o),
(270,672,c),
(271,679,o),
(272,685,o),
(272,691,cs)
);
}
);
width = 390;
}
);
unicode = 34;
}
{
glyphname = numbersign;
layers = (
{
hints = (
{
horizontal = 1;
place = (-9,20);
type = Stem;
},
{
horizontal = 1;
place = (184,87);
type = Stem;
},
{
horizontal = 1;
place = (417,87);
type = Stem;
}
);
layerId = "C81813BF-B5F5-4CE8-9C14-91E07284E92C";
shapes = (
{
closed = 1;
nodes = (
(549,504,l),
(601,685,l),
(559,685,l),
(507,504,l),
(382,504,l),
(434,685,l),
(392,685,l),
(340,504,l),
(182,504,l),
(158,421,l),
(316,421,l),
(270,267,l),
(114,267,l),
(90,184,l),
(246,184,l),
(191,-9,l),
(233,-9,l),
(288,184,l),
(413,184,l),
(358,-9,l),
(400,-9,l),
(455,184,l),
(614,184,l),
(638,267,l),
(479,267,l),
(525,421,l),
(682,421,l),
(706,504,l)
);
},
{
closed = 1;
nodes = (
(437,267,l),
(312,267,l),
(358,421,l),
(483,421,l)
);
}
);
width = 756;
}
);
unicode = 35;
}
{
glyphname = dollar;
layers = (
{
hints = (
{
horizontal = 1;
place = (-7,41);
type = Stem;
},
{
horizontal = 1;
place = (648,41);
type = Stem;
},
{
place = (20,126);
type = Stem;
},
{
place = (421,111);
type = Stem;
}
);
layerId = "C81813BF-B5F5-4CE8-9C14-91E07284E92C";
shapes = (
{
closed = 1;
nodes = (
(536,611,o),
(499,667,o),
(410,684,c),
(424,740,l),
(380,740,l),
(367,689,l),
(345,689,ls),
(222,689,o),
(122,602,o),
(122,493,cs),
(122,419,o),
(177,372,o),
(222,344,c),
(238,336,o),
(256,327,o),
(275,317,c),
(205,38,l),
(146,45,o),
(112,74,o),
(96,99,c),
(133,116,o),
(147,140,o),
(147,166,cs),
(147,197,o),
(126,218,o),
(86,218,cs),
(52,218,o),
(23,189,o),
(23,145,cs),
(23,67,o),
(83,8,o),
(195,-5,c),
(162,-136,l),
(206,-136,l),
(238,-7,l),
(247,-7,ls),
(391,-7,o),
(493,97,o),
(493,208,cs),
(493,268,o),
(458,315,o),
(409,349,cs),
(383,366,o),
(359,379,o),
(337,390,c),
(399,640,l),
(438,629,o),
(455,606,o),
(463,595,c),
(440,583,o),
(425,568,o),
(425,541,cs),
(425,511,o),
(453,494,o),
(481,494,cs),
(510,494,o),
(535,518,o),
(535,560,c)
);
},
{
closed = 1;
nodes = (
(297,406,l),
(286,411,o),
(276,417,o),
(266,424,cs),
(226,451,o),
(213,487,o),
(213,520,cs),
(213,581,o),
(258,646,o),
(343,646,cs),
(357,646,l)
);
},
{
closed = 1;
nodes = (
(402,95,o),
(336,39,o),
(249,36,c),
(315,301,l),
(322,298,o),
(328,294,o),
(335,290,cs),
(389,260,o),
(402,213,o),
(402,182,cs)
);
}
);
width = 536;
}
);
unicode = 36;
}
{
glyphname = percent;
layers = (
{
hints = (
{
horizontal = 1;
place = (-9,41);
type = Stem;
},
{
horizontal = 1;
place = (307,41);
type = Stem;
},
{
horizontal = 1;
place = (653,41);
type = Stem;
},
{
place = (73,78);
type = Stem;
},
{
place = (191,34);
type = Stem;
},
{
place = (328,78);
type = Stem;
},
{
place = (509,78);
type = Stem;
},
{
place = (763,78);
type = Stem;
}
);
layerId = "C81813BF-B5F5-4CE8-9C14-91E07284E92C";
shapes = (
{
closed = 1;
nodes = (
(844,306,o),
(790,378,o),
(712,378,cs),
(599,378,o),
(514,259,o),
(514,148,cs),
(514,55,o),
(576,-9,o),
(650,-9,cs),
(750,-9,o),
(844,96,o),
(844,218,cs)
);
},
{
closed = 1;
nodes = (
(699,702,l),
(655,646,o),
(563,552,o),
(406,535,c),
(405,623,o),
(352,694,o),
(274,694,cs),
(161,694,o),
(76,575,o),
(76,464,cs),
(76,371,o),
(138,307,o),
(212,307,cs),
(301,307,o),
(385,390,o),
(403,494,c),
(514,504,o),
(584,558,o),
(607,574,c),
(609,572,l),
(174,6,l),
(230,-37,l),
(735,676,l)
);
},
{
closed = 1;
nodes = (
(331,556,o),
(331,546,o),
(330,535,c),
(252,544,o),
(224,585,o),
(224,615,cs),
(224,640,o),
(244,653,o),
(269,653,cs),
(311,653,o),
(331,623,o),
(331,565,cs)
);
},
{
closed = 1;
nodes = (
(768,172,o),
(733,32,o),
(651,32,cs),
(615,32,o),
(590,58,o),
(590,107,cs),
(590,180,o),
(618,337,o),
(707,337,cs),
(749,337,o),
(768,307,o),
(768,249,cs)
);
},
{
closed = 1;
nodes = (
(310,424,o),
(273,348,o),
(213,348,cs),
(177,348,o),
(152,374,o),
(152,423,cs),
(152,475,o),
(162,554,o),
(194,606,c),
(196,544,o),
(254,506,o),
(324,495,c)
);
}
);
width = 856;
}
);
unicode = 37;
}
{
glyphname = ampersand;
layers = (
{
hints = (
{
horizontal = 1;
place = (-10,70);
type = Stem;
},
{
horizontal = 1;
place = (691,49);
type = Stem;
},
{
place = (12,103);
type = Stem;
},
{
place = (232,93);
type = Stem;
},
{
place = (488,85);
type = Stem;
}
);
layerId = "C81813BF-B5F5-4CE8-9C14-91E07284E92C";
shapes = (
{
closed = 1;
nodes = (
(510,391,l),
(506,369,ls),
(504,359,o),
(509,358,o),
(528,348,cs),
(555,334,o),
(563,329,o),
(563,316,cs),
(563,308,o),
(558,293,o),
(539,265,cs),
(518,235,o),
(485,195,o),
(449,162,c),
(415,227,o),
(374,327,o),
(351,412,c),
(489,455,o),
(576,521,o),
(576,618,cs),
(576,677,o),
(536,740,o),
(439,740,cs),
(309,740,o),
(235,647,o),
(235,539,cs),
(235,503,o),
(241,462,o),
(250,423,c),
(101,360,o),
(15,278,o),
(15,158,cs),
(15,67,o),
(77,-10,o),
(205,-10,cs),
(274,-10,o),
(331,22,o),
(398,71,c),
(436,22,o),
(480,-10,o),
(541,-10,cs),
(613,-10,o),
(651,9,o),
(694,35,c),
(684,74,l),
(657,61,o),
(623,49,o),
(597,49,cs),
(547,49,o),
(505,74,o),
(469,129,c),
(514,168,o),
(556,215,o),
(591,258,cs),
(649,329,o),
(660,329,o),
(697,342,cs),
(717,349,o),
(735,354,o),
(738,369,cs),
(742,391,l)
);
},
{
closed = 1;
nodes = (
(495,588,o),
(486,501,o),
(341,449,c),
(332,488,o),
(328,525,o),
(328,556,cs),
(328,633,o),
(357,696,o),
(426,696,cs),
(463,696,o),
(495,671,o),
(495,620,cs)
);
},
{
closed = 1;
nodes = (
(335,78,o),
(299,60,o),
(254,60,cs),
(161,60,o),
(117,117,o),
(117,193,cs),
(117,267,o),
(152,331,o),
(260,384,c),
(297,261,o),
(333,178,o),
(375,104,c)
);
}
);
width = 739;
}
);
unicode = 38;
}
{
glyphname = quotesingle;
layers = (
{
layerId = "C81813BF-B5F5-4CE8-9C14-91E07284E92C";
shapes = (
{
closed = 1;
nodes = (
(272,720,o),
(252,740,o),
(221,740,cs),
(196,740,o),
(177,724,o),
(171,697,cs),
(162,661,o),
(156,547,o),
(147,457,c),
(149,452,o),
(153,446,o),
(161,446,cs),
(168,446,o),
(170,447,o),
(174,450,c),
(210,535,o),
(261,637,o),
(270,672,c),
(271,679,o),
(272,685,o),
(272,691,cs)
);
}
);
width = 236;
}
);
unicode = 39;
}
{
glyphname = parenleft;
layers = (
{
hints = (
{
place = (45,85);
type = Stem;
}
);
layerId = "C81813BF-B5F5-4CE8-9C14-91E07284E92C";
shapes = (
{
closed = 1;
nodes = (
(410,740,l),
(212,607,o),
(48,426,o),
(48,166,cs),
(48,24,o),
(96,-107,o),
(178,-189,c),
(214,-166,l),
(161,-105,o),
(135,-6,o),
(135,100,cs),
(135,376,o),
(251,581,o),
(432,709,c)
);
}
);
width = 349;
}
);
unicode = 40;
}
{
glyphname = parenright;
layers = (
{
hints = (
{
place = (207,85);
type = Stem;
}
);
layerId = "C81813BF-B5F5-4CE8-9C14-91E07284E92C";
shapes = (
{
closed = 1;
nodes = (
(295,527,o),
(247,658,o),
(165,740,c),
(129,717,l),
(182,655,o),
(208,559,o),
(208,451,cs),
(208,174,o),
(92,-30,o),
(-89,-158,c),
(-67,-189,l),
(131,-56,o),
(295,125,o),
(295,385,cs)
);
}
);
width = 349;
}
);
unicode = 41;
}
{
glyphname = asterisk;
layers = (
{
hints = (
{
horizontal = 1;
place = (733,-20);
target = down;
type = TopGhost;
},
{
place = (297,56);
type = Stem;
}
);
layerId = "C81813BF-B5F5-4CE8-9C14-91E07284E92C";
shapes = (
{
closed = 1;
nodes = (
(499,632,o),
(481,650,o),
(457,650,cs),
(429,650,o),
(407,621,o),
(392,601,cs),
(382,586,o),
(372,575,o),
(328,551,c),
(330,641,o),
(355,634,o),
(355,690,cs),
(355,716,o),
(338,733,o),
(314,733,cs),
(293,733,o),
(274,718,o),
(274,690,cs),
(274,634,o),
(298,641,o),
(301,551,c),
(253,576,o),
(248,588,o),
(235,606,cs),
(219,629,o),
(195,652,o),
(170,652,cs),
(149,652,o),
(130,633,o),
(130,611,cs),
(130,597,o),
(136,584,o),
(153,574,cs),
(200,545,o),
(209,569,o),
(286,527,c),
(209,485,o),
(201,511,o),
(152,482,cs),
(136,472,o),
(129,460,o),
(129,445,cs),
(129,423,o),
(147,405,o),
(171,405,cs),
(199,405,o),
(221,434,o),
(236,454,cs),
(246,469,o),
(256,480,o),
(300,504,c),
(297,412,o),
(273,421,o),
(273,365,cs),
(273,339,o),
(290,322,o),
(314,322,cs),
(335,322,o),
(354,337,o),
(354,365,cs),
(354,421,o),
(329,413,o),
(327,504,c),
(373,478,o),
(380,467,o),
(393,449,cs),
(409,426,o),
(433,403,o),
(458,403,cs),
(479,403,o),
(498,422,o),
(498,444,cs),
(498,458,o),
(492,472,o),
(475,482,cs),
(428,511,o),
(417,485,o),
(341,527,c),
(418,570,o),
(427,544,o),
(476,573,cs),
(492,583,o),
(499,595,o),
(499,610,cs)
);
}
);
width = 477;
}
);
unicode = 42;
}
{
glyphname = plus;
layers = (
{
hints = (
{
horizontal = 1;
place = (262,64);
type = Stem;
},
{
place = (360,67);
type = Stem;
}
);
layerId = "C81813BF-B5F5-4CE8-9C14-91E07284E92C";
shapes = (
{
closed = 1;
nodes = (
(656,324,l),
(427,324,l),
(427,551,l),
(363,551,l),
(363,324,l),
(134,324,l),
(134,262,l),
(363,262,l),
(363,35,l),
(427,35,l),
(427,262,l),
(656,262,l)
);
}
);
width = 756;
}
);
unicode = 43;
}
{
glyphname = comma;
layers = (
{
hints = (
{
place = (26,126);
type = Stem;
}
);
layerId = "C81813BF-B5F5-4CE8-9C14-91E07284E92C";
shapes = (
{
closed = 1;
nodes = (
(155,93,o),
(134,120,o),
(93,120,cs),
(62,120,o),
(27,95,o),
(27,54,cs),
(27,29,o),
(41,5,o),
(91,-3,c),
(68,-61,o),
(18,-94,o),
(-26,-121,c),
(-6,-148,l),
(103,-101,o),
(155,-13,o),
(155,56,cs)
);
}
);
width = 244;
}
);
unicode = 44;
}
{
glyphname = hyphen;
layers = (
{
hints = (
{
horizontal = 1;
place = (184,77);
type = Stem;
}
);
layerId = "C81813BF-B5F5-4CE8-9C14-91E07284E92C";
shapes = (
{
closed = 1;
nodes = (
(62,292,l),
(42,216,l),
(261,216,l),
(281,292,l)
);
}
);
width = 317;
}
);
unicode = 45;
}
{
glyphname = period;
layers = (
{
hints = (
{
horizontal = 1;
place = (-6,127);
type = Stem;
},
{
place = (25,126);
type = Stem;
}
);
layerId = "C81813BF-B5F5-4CE8-9C14-91E07284E92C";
shapes = (
{
closed = 1;
nodes = (
(154,92,o),
(126,121,o),
(90,121,cs),
(55,121,o),
(28,92,o),
(28,58,cs),
(28,23,o),
(55,-6,o),
(90,-6,cs),
(126,-6,o),
(154,23,o),
(154,58,cs)
);
}
);
width = 244;
}
);
unicode = 46;
}
{
glyphname = slash;
layers = (
{
hints = (
{
horizontal = 1;
place = (730,-20);
target = down;
type = TopGhost;
}
);
layerId = "C81813BF-B5F5-4CE8-9C14-91E07284E92C";
shapes = (
{
closed = 1;
nodes = (
(454,730,l),
(-111,-190,l),
(-44,-190,l),
(522,730,l)
);
}
);
width = 446;
}
);
unicode = 47;
}
{
glyphname = zero;
layers = (
{
hints = (
{
horizontal = 1;
place = (-9,49);
type = Stem;
},
{
horizontal = 1;
place = (645,49);
type = Stem;
},
{
place = (56,93);
type = Stem;
},
{
place = (472,93);
type = Stem;
}
);
layerId = "C81813BF-B5F5-4CE8-9C14-91E07284E92C";
shapes = (
{
closed = 1;
nodes = (
(568,591,o),
(492,694,o),
(370,694,cs),
(194,694,o),
(59,468,o),
(59,247,cs),
(59,89,o),
(137,-9,o),
(257,-9,cs),
(431,-9,o),
(568,217,o),
(568,437,cs)
);
},
{
closed = 1;
nodes = (
(471,314,o),
(395,39,o),
(258,39,cs),
(194,39,o),
(155,82,o),
(155,187,cs),
(155,366,o),
(231,647,o),
(368,647,cs),
(432,647,o),
(471,602,o),
(471,498,cs)
);
}
);
width = 582;
}
);
unicode = 48;
}
{
glyphname = one;
layers = (
{
hints = (
{
horizontal = 1;
place = (0,20);
type = Stem;
}
);
layerId = "C81813BF-B5F5-4CE8-9C14-91E07284E92C";
shapes = (
{
closed = 1;
nodes = (
(314,687,l),
(140,626,l),
(130,588,l),
(236,588,l),
(115,102,ls),
(107,70,o),
(97,58,o),
(61,50,cs),
(37,45,o),
(16,42,o),
(11,24,cs),
(5,0,l),
(274,0,l),
(281,25,ls),
(286,43,o),
(269,47,o),
(247,51,cs),
(218,56,o),
(207,67,o),
(207,84,cs),
(207,89,o),
(212,108,o),
(214,118,cs),
(356,687,l)
);
}
);
width = 390;
}
);
unicode = 49;
}
{
glyphname = two;
layers = (
{
hints = (
{
horizontal = 1;
place = (0,87);
type = Stem;
},
{
horizontal = 1;
place = (645,49);
type = Stem;
},
{
place = (79,111);
type = Stem;
},
{
place = (394,103);
type = Stem;
}
);
layerId = "C81813BF-B5F5-4CE8-9C14-91E07284E92C";
shapes = (
{
closed = 1;
nodes = (
(500,620,o),
(419,694,o),
(300,694,cs),
(180,694,o),
(82,619,o),
(82,546,cs),
(82,508,o),
(103,481,o),
(143,481,cs),
(174,481,o),
(197,503,o),
(197,536,cs),
(197,560,o),
(184,578,o),
(167,594,c),
(181,622,o),
(231,646,o),
(281,646,cs),
(348,646,o),
(396,597,o),
(396,536,cs),
(396,456,o),
(349,389,o),
(238,299,cs),
(155,232,o),
(49,132,o),
(-2,74,c),
(-20,0,l),
(404,0,l),
(449,158,l),
(421,158,ls),
(411,158,o),
(405,156,o),
(397,142,cs),
(372,97,o),
(352,88,o),
(314,88,cs),
(73,88,l),
(123,137,o),
(177,178,o),
(270,245,cs),
(361,311,o),
(500,385,o),
(500,530,cs)
);
}
);
width = 497;
}
);
unicode = 50;
}
{
glyphname = three;
layers = (
{
hints = (
{
horizontal = 1;
place = (-9,49);
type = Stem;
},
{
horizontal = 1;
place = (349,49);
type = Stem;
},
{
horizontal = 1;
place = (645,49);
type = Stem;
},
{
place = (-9,118);
type = Stem;
},
{
place = (353,103);
type = Stem;
}
);
layerId = "C81813BF-B5F5-4CE8-9C14-91E07284E92C";
shapes = (
{
closed = 1;
nodes = (
(498,633,o),
(411,694,o),
(299,694,cs),
(207,694,o),
(103,645,o),
(103,577,cs),
(103,538,o),
(127,518,o),
(160,518,cs),
(192,518,o),
(212,541,o),
(212,571,cs),
(212,590,o),
(204,601,o),
(189,616,c),
(207,631,o),
(241,647,o),
(283,647,cs),
(356,647,o),
(396,604,o),
(396,551,cs),
(396,451,o),
(332,398,o),
(190,398,c),
(179,352,l),
(291,349,o),
(356,302,o),
(356,222,cs),
(356,125,o),
(296,38,o),
(188,38,cs),
(131,38,o),
(94,61,o),
(83,84,c),
(100,100,o),
(112,117,o),
(112,145,cs),
(112,170,o),
(91,193,o),
(54,193,cs),
(16,193,o),
(-6,159,o),
(-6,126,cs),
(-6,46,o),
(78,-9,o),
(194,-9,cs),
(336,-9,o),
(459,79,o),
(459,212,cs),
(459,302,o),
(386,355,o),
(304,371,c),
(407,386,o),
(498,451,o),
(498,550,cs)
);
}
);
width = 501;
}
);
unicode = 51;
}
{
glyphname = four;
layers = (
{
hints = (
{
horizontal = 1;
place = (0,20);
type = Stem;
},
{
horizontal = 1;
place = (178,64);
type = Stem;
}
);
layerId = "C81813BF-B5F5-4CE8-9C14-91E07284E92C";
shapes = (
{
closed = 1;
nodes = (
(451,694,l),
(8,240,l),
(-7,178,l),
(289,178,l),
(265,82,ls),
(259,57,o),
(254,55,o),
(227,44,cs),
(207,36,o),
(202,35,o),
(200,27,cs),
(193,0,l),
(392,0,l),
(399,27,ls),
(401,34,o),
(396,36,o),
(382,44,cs),
(364,54,o),
(356,58,o),
(356,69,cs),
(356,73,o),
(360,89,o),
(362,98,cs),
(382,178,l),
(484,178,l),
(499,238,l),
(397,238,l),
(510,694,l)
);
},
{
closed = 1;
nodes = (
(304,238,l),
(72,238,l),
(384,558,l)
);
}
);
width = 515;
}
);
unicode = 52;
}
{
glyphname = five;
layers = (
{
hints = (
{
horizontal = 1;
place = (-9,49);
type = Stem;
},
{
horizontal = 1;
place = (370,64);
type = Stem;
},
{
horizontal = 1;
place = (597,87);
type = Stem;
},
{
horizontal = 1;
place = (729,-20);
target = down;
type = TopGhost;
},
{
place = (6,118);
type = Stem;
},
{
place = (371,103);
type = Stem;
}
);
layerId = "C81813BF-B5F5-4CE8-9C14-91E07284E92C";
shapes = (
{
closed = 1;
nodes = (
(533,729,ls),
(524,729,o),
(518,726,o),
(510,713,cs),
(496,689,o),
(490,684,o),
(452,684,cs),
(191,684,l),
(85,345,l),
(114,320,l),
(157,348,o),
(191,374,o),
(246,374,cs),
(331,374,o),
(372,312,o),
(372,240,cs),
(372,141,o),
(313,37,o),
(199,37,cs),
(149,37,o),
(108,61,o),
(98,84,c),
(112,102,o),
(126,118,o),
(126,148,cs),
(126,172,o),
(106,195,o),
(70,195,cs),
(31,195,o),
(9,159,o),
(9,127,cs),
(9,50,o),
(88,-9,o),
(207,-9,cs),
(350,-9,o),
(477,97,o),
(477,245,cs),
(477,339,o),
(412,434,o),
(286,434,cs),
(235,434,o),
(195,416,o),
(148,388,c),
(217,596,l),
(518,596,l),
(559,729,l)
);
}
);
width = 506;
}
);
unicode = 53;
}
{
glyphname = six;
layers = (
{
hints = (
{
horizontal = 1;
place = (-9,49);
type = Stem;
},
{
horizontal = 1;
place = (359,64);
type = Stem;
},
{
horizontal = 1;
place = (645,49);
type = Stem;
},
{
place = (53,93);
type = Stem;
},
{
place = (444,111);
type = Stem;
}
);
layerId = "C81813BF-B5F5-4CE8-9C14-91E07284E92C";
shapes = (
{
closed = 1;
nodes = (
(558,651,o),
(497,694,o),
(406,694,cs),
(204,694,o),
(56,463,o),
(56,240,cs),
(56,96,o),
(126,-9,o),
(263,-9,cs),
(418,-9,o),
(521,121,o),
(521,244,cs),
(521,342,o),
(453,423,o),
(341,423,cs),
(276,423,o),
(216,394,o),
(171,359,c),
(215,566,o),
(313,647,o),
(394,647,cs),
(426,647,o),
(451,635,o),
(457,630,c),
(454,617,o),
(447,594,o),
(447,575,cs),
(447,548,o),
(464,528,o),
(497,528,cs),
(532,528,o),
(558,558,o),
(558,597,cs)
);
},
{
closed = 1;
nodes = (
(415,149,o),
(365,37,o),
(263,37,cs),
(184,37,o),
(151,117,o),
(152,212,c),
(152,242,o),
(156,273,o),
(162,304,c),
(182,324,o),
(243,362,o),
(306,362,cs),
(379,362,o),
(415,309,o),
(415,245,cs)
);
}
);
width = 552;
}
);
unicode = 54;
}
{
glyphname = seven;
layers = (
{
hints = (
{
horizontal = 1;
place = (-9,20);
type = Stem;
},
{
horizontal = 1;
place = (597,87);
type = Stem;
}
);
layerId = "C81813BF-B5F5-4CE8-9C14-91E07284E92C";
shapes = (
{
closed = 1;
nodes = (
(240,684,ls),
(199,684,o),
(142,687,o),
(115,690,c),
(66,536,l),
(96,536,ls),
(105,536,o),
(111,539,o),
(119,552,cs),
(133,576,o),
(145,596,o),
(182,596,cs),
(442,596,l),
(378,519,o),
(296,410,o),
(229,309,cs),
(154,195,o),
(102,100,o),
(102,44,cs),
(102,5,o),
(121,-9,o),
(153,-9,cs),
(194,-9,o),
(215,18,o),
(224,79,cs),
(254,291,o),
(374,434,o),
(528,633,c),
(541,684,l)
);
}
);
width = 456;
}
);
unicode = 55;
}
{
glyphname = eight;
layers = (
{
hints = (
{
horizontal = 1;
place = (-10,49);
type = Stem;
},
{
horizontal = 1;
place = (645,49);
type = Stem;
},
{
place = (19,85);
type = Stem;
},
{
place = (116,93);
type = Stem;
},
{
place = (397,93);
type = Stem;
}
);
layerId = "C81813BF-B5F5-4CE8-9C14-91E07284E92C";
shapes = (
{
closed = 1;
nodes = (
(524,630,o),
(450,694,o),
(338,694,cs),
(222,694,o),
(119,609,o),
(119,497,cs),
(119,441,o),
(154,397,o),
(206,358,c),
(126,334,o),
(22,265,o),
(22,156,cs),
(22,61,o),
(107,-10,o),
(240,-10,cs),
(373,-10,o),
(493,72,o),
(493,203,cs),
(493,278,o),
(443,325,o),
(364,372,c),
(442,395,o),
(524,465,o),
(524,549,cs)
);
},
{
closed = 1;
nodes = (
(443,472,o),
(384,420,o),
(323,398,c),
(262,434,o),
(207,471,o),
(207,529,cs),
(207,594,o),
(262,647,o),
(333,647,cs),
(398,647,o),
(443,604,o),
(443,549,cs)
);
},
{
closed = 1;
nodes = (
(400,94,o),
(329,37,o),
(244,37,cs),
(163,37,o),
(107,88,o),
(107,157,cs),
(107,266,o),
(199,311,o),
(251,330,c),
(331,286,o),
(400,246,o),
(400,175,cs)
);
}
);
width = 520;
}
);
unicode = 56;
}
{
glyphname = nine;
layers = (
{
hints = (
{
horizontal = 1;
place = (-9,49);
type = Stem;
},
{
horizontal = 1;
place = (261,64);
type = Stem;
},
{
horizontal = 1;
place = (645,49);
type = Stem;
},
{
place = (22,111);
type = Stem;
},
{
place = (440,93);
type = Stem;
}
);
layerId = "C81813BF-B5F5-4CE8-9C14-91E07284E92C";
shapes = (
{
closed = 1;
nodes = (
(536,587,o),
(467,694,o),
(328,694,cs),
(186,694,o),
(73,569,o),
(73,440,cs),
(73,336,o),
(145,261,o),
(250,261,cs),
(315,261,o),
(377,291,o),
(423,327,c),
(378,119,o),
(285,38,o),
(196,38,cs),
(162,38,o),
(134,48,o),
(126,56,c),
(132,79,o),
(136,102,o),
(136,115,cs),
(136,141,o),
(119,158,o),
(88,158,cs),
(52,158,o),
(25,129,o),
(25,91,cs),
(25,40,o),
(78,-9,o),
(184,-9,cs),
(395,-9,o),
(536,228,o),
(536,445,cs)
);
},
{
closed = 1;
nodes = (
(441,448,o),
(437,415,o),
(431,382,c),
(411,361,o),
(350,323,o),
(288,323,cs),
(214,323,o),
(178,368,o),
(178,437,cs),
(178,536,o),
(238,647,o),
(329,647,cs),
(408,647,o),
(441,572,o),
(441,479,cs)
);
}
);
width = 552;
}
);
unicode = 57;
}
{
glyphname = colon;
layers = (
{
hints = (
{
horizontal = 1;
place = (-6,127);
type = Stem;
},
{
horizontal = 1;
place = (310,127);
type = Stem;
},
{
place = (40,126);
type = Stem;
}
);
layerId = "C81813BF-B5F5-4CE8-9C14-91E07284E92C";
shapes = (
{
closed = 1;
nodes = (
(251,463,o),
(223,492,o),
(187,492,cs),
(152,492,o),
(125,463,o),
(125,429,cs),
(125,394,o),
(152,365,o),
(187,365,cs),
(223,365,o),
(251,394,o),
(251,429,cs)
);
},
{
closed = 1;
nodes = (
(171,92,o),
(143,121,o),
(107,121,cs),
(72,121,o),
(45,92,o),
(45,58,cs),
(45,23,o),
(72,-6,o),
(107,-6,cs),
(143,-6,o),
(171,23,o),
(171,58,cs)
);
}
);
width = 274;
}
);
unicode = 58;
}
{
glyphname = less;
layers = (
{
layerId = "C81813BF-B5F5-4CE8-9C14-91E07284E92C";
shapes = (
{
closed = 1;
nodes = (
(656,103,l),
(217,293,l),
(656,483,l),
(656,556,l),
(134,325,l),
(134,261,l),
(656,30,l)
);
}
);
width = 756;
}
);
unicode = 60;
}
{
glyphname = equal;
layers = (
{
hints = (
{
horizontal = 1;
place = (153,64);
type = Stem;
},
{
horizontal = 1;
place = (333,64);
type = Stem;
}
);
layerId = "C81813BF-B5F5-4CE8-9C14-91E07284E92C";
shapes = (
{
closed = 1;
nodes = (
(651,397,l),
(141,397,l),
(141,335,l),
(651,335,l)
);
},
{
closed = 1;
nodes = (
(651,215,l),
(141,215,l),
(141,153,l),
(651,153,l)
);
}
);
width = 756;
}
);
unicode = 61;
}
{
glyphname = greater;
layers = (
{
layerId = "C81813BF-B5F5-4CE8-9C14-91E07284E92C";
shapes = (
{
closed = 1;
nodes = (
(656,325,l),
(134,556,l),
(134,483,l),
(573,293,l),
(134,103,l),
(134,30,l),
(656,261,l)
);
}
);
width = 756;
}
);
unicode = 62;
}
{
glyphname = question;
layers = (
{
hints = (
{
horizontal = 1;
place = (-6,127);
type = Stem;
},
{
horizontal = 1;
place = (699,41);
type = Stem;
},
{
place = (92,126);
type = Stem;
},
{
place = (350,103);
type = Stem;
}
);
layerId = "C81813BF-B5F5-4CE8-9C14-91E07284E92C";
shapes = (
{
closed = 1;
nodes = (
(456,691,o),
(372,740,o),
(282,740,cs),
(177,740,o),
(110,680,o),
(110,623,cs),
(110,592,o),
(131,566,o),
(169,566,cs),
(198,566,o),
(221,587,o),
(221,624,cs),
(221,635,o),
(217,649,o),
(200,666,c),
(215,689,o),
(250,702,o),
(275,702,cs),
(316,702,o),
(355,679,o),
(355,613,cs),
(355,539,o),
(327,513,o),
(256,420,cs),
(199,345,o),
(170,267,o),
(160,207,cs),
(159,203,o),
(168,193,o),
(181,193,cs),
(193,193,o),
(204,199,o),
(205,204,cs),
(223,284,o),
(247,340,o),
(341,420,cs),
(411,481,o),
(456,523,o),
(456,598,cs)
);
},
{
closed = 1;
nodes = (
(226,92,o),
(198,121,o),
(162,121,cs),
(127,121,o),
(100,92,o),
(100,58,cs),
(100,23,o),
(127,-6,o),
(162,-6,cs),
(198,-6,o),
(226,23,o),
(226,58,cs)
);
}
);
width = 439;
}
);
unicode = 63;
}
{
glyphname = at;
layers = (
{
hints = (
{
horizontal = 1;
place = (-198,49);
type = Stem;
},
{
horizontal = 1;
place = (0,49);
type = Stem;
},
{
horizontal = 1;
place = (393,41);
type = Stem;
},
{
horizontal = 1;
place = (585,49);
type = Stem;
},
{
place = (73,78);
type = Stem;
},
{
place = (275,93);
type = Stem;
},
{
place = (527,85);
type = Stem;
},
{
place = (833,50);
type = Stem;
}
);
layerId = "C81813BF-B5F5-4CE8-9C14-91E07284E92C";
shapes = (
{
closed = 1;
nodes = (
(886,509,o),
(759,634,o),
(551,634,cs),
(294,634,o),
(76,426,o),
(76,169,cs),
(76,-43,o),
(224,-198,o),
(484,-198,cs),
(591,-198,o),
(695,-161,o),
(794,-88,c),
(775,-53,l),
(678,-121,o),
(585,-152,o),
(486,-152,cs),
(288,-152,o),
(153,-26,o),
(153,160,cs),
(153,396,o),
(333,586,o),
(558,586,cs),
(732,586,o),
(836,472,o),
(836,335,cs),
(836,186,o),
(743,38,o),
(637,38,cs),
(622,38,o),
(615,48,o),
(615,70,cs),
(615,87,o),
(623,110,o),
(628,127,cs),
(720,428,l),
(700,428,l),
(656,397,l),
(639,423,o),
(610,434,o),
(571,434,cs),
(517,434,o),
(460,410,o),
(408,366,cs),
(329,299,o),
(278,206,o),
(278,118,cs),
(278,44,o),
(314,0,o),
(391,0,cs),
(452,0,o),
(484,20,o),
(533,55,c),
(533,33,o),
(544,-7,o),
(605,-7,cs),
(771,-7,o),
(886,167,o),
(886,328,cs)
);
},
{
closed = 1;
nodes = (
(606,349,o),
(604,328,o),
(598,307,cs),
(535,101,l),
(509,72,o),
(472,53,o),
(443,53,cs),
(394,53,o),
(371,80,o),
(371,132,cs),
(371,201,o),
(409,284,o),
(460,341,cs),
(492,376,o),
(527,393,o),
(564,393,cs),
(594,393,o),
(606,380,o),
(606,360,cs)
);
}
);
width = 950;
}
);
unicode = 64;
}
{
glyphname = A;
layers = (
{
hints = (
{
horizontal = 1;
place = (0,20);
type = Stem;
},
{
horizontal = 1;
place = (205,49);
type = Stem;
}
);
layerId = "C81813BF-B5F5-4CE8-9C14-91E07284E92C";
shapes = (
{
closed = 1;
nodes = (
(632,25,ls),
(634,35,o),
(631,36,o),
(610,45,cs),
(591,54,o),
(579,70,o),
(576,90,cs),
(479,734,ls),
(478,739,o),
(476,741,o),
(471,741,cs),
(467,741,o),
(460,736,o),
(457,735,cs),
(434,723,o),
(416,715,o),
(391,703,cs),
(385,700,o),
(384,698,o),
(383,695,cs),
(382,692,o),
(382,688,o),
(383,683,cs),
(393,633,l),
(38,105,ls),
(15,71,o),
(8,62,o),
(-26,43,cs),
(-43,33,o),
(-49,29,o),
(-51,20,cs),
(-56,0,l),
(136,0,l),
(139,15,l),
(142,25,o),
(136,31,o),
(119,39,cs),
(104,45,o),
(92,53,o),
(92,65,cs),
(92,76,o),
(108,101,o),
(114,110,cs),
(176,205,l),
(460,205,l),
(473,109,ls),
(475,96,o),
(476,81,o),
(476,73,cs),
(476,59,o),
(467,51,o),
(446,42,cs),
(423,31,o),
(417,30,o),
(415,20,cs),
(410,0,l),
(626,0,l)
);
},
{
closed = 1;
nodes = (
(208,255,l),
(408,560,l),
(452,255,l)
);
}
);
width = 683;
}
);
unicode = 65;
}
{
glyphname = B;
layers = (
{
hints = (
{
horizontal = 1;
place = (0,49);
type = Stem;
},
{
horizontal = 1;
place = (355,49);
type = Stem;
},
{
horizontal = 1;
place = (681,49);
type = Stem;
},
{
place = (468,111);
type = Stem;
}
);
layerId = "C81813BF-B5F5-4CE8-9C14-91E07284E92C";
shapes = (
{
closed = 1;
nodes = (
(609,664,o),
(541,730,o),
(394,730,cs),
(149,730,l),
(145,715,ls),
(144,710,o),
(142,703,o),
(142,700,cs),
(142,692,o),
(150,692,o),
(165,685,cs),
(181,678,o),
(191,673,o),
(191,662,cs),
(191,656,o),
(189,645,o),
(186,633,cs),
(49,85,ls),
(43,60,o),
(42,56,o),
(13,45,cs),
(-10,36,o),
(-15,37,o),
(-18,25,cs),
(-24,0,l),
(292,0,ls),
(472,0,o),
(582,91,o),
(582,220,cs),
(582,315,o),
(506,373,o),
(402,383,c),
(529,403,o),
(609,482,o),
(609,579,cs)
);
},
{
closed = 1;
nodes = (
(497,474,o),
(440,404,o),
(312,404,cs),
(231,404,l),
(300,683,l),
(351,683,ls),
(457,683,o),
(497,642,o),
(497,577,cs)
);
},
{
closed = 1;
nodes = (
(467,114,o),
(409,48,o),
(256,48,cs),
(142,48,l),
(218,352,l),
(288,352,ls),
(416,352,o),
(467,316,o),
(467,234,cs)
);
}
);
width = 620;
}
);
unicode = 66;
}
{
glyphname = C;
layers = (
{
hints = (
{
horizontal = 1;
place = (-10,49);
type = Stem;
},
{
horizontal = 1;
place = (691,49);
type = Stem;
},
{
place = (51,111);
type = Stem;
}
);
layerId = "C81813BF-B5F5-4CE8-9C14-91E07284E92C";
shapes = (
{
closed = 1;
nodes = (
(653,698,ls),
(645,698,o),
(643,695,o),
(628,686,cs),
(617,680,o),
(611,685,o),
(602,690,cs),
(554,718,o),
(517,740,o),
(422,740,cs),
(243,740,o),
(54,566,o),
(54,302,cs),
(54,129,o),
(145,-10,o),
(335,-10,cs),
(463,-10,o),
(559,68,o),
(596,120,c),
(569,158,l),
(544,130,o),
(461,44,o),
(344,44,cs),
(240,44,o),
(163,117,o),
(163,278,cs),
(163,497,o),
(285,691,o),
(434,691,cs),
(525,691,o),
(578,628,o),
(587,535,cs),
(588,527,o),
(590,521,o),
(602,521,cs),
(634,521,l),
(678,698,l)
);
}
);
width = 625;
}
);
unicode = 67;
}
{
glyphname = D;
layers = (
{
hints = (
{
horizontal = 1;
place = (0,49);
type = Stem;
},
{
horizontal = 1;
place = (681,49);
type = Stem;
},
{
place = (579,111);
type = Stem;
}
);
layerId = "C81813BF-B5F5-4CE8-9C14-91E07284E92C";
shapes = (
{
closed = 1;
nodes = (
(693,612,o),
(576,730,o),
(363,730,cs),
(149,730,l),
(145,715,ls),
(144,710,o),
(142,703,o),
(142,700,cs),
(142,692,o),
(150,692,o),
(165,685,cs),
(181,678,o),
(191,673,o),
(191,662,cs),
(191,656,o),
(189,645,o),
(186,633,cs),
(49,85,ls),
(43,60,o),
(42,56,o),
(13,45,cs),
(-10,36,o),
(-15,37,o),
(-18,25,cs),
(-24,0,l),
(258,0,ls),
(379,0,o),
(485,37,o),
(569,121,cs),
(645,197,o),
(693,306,o),
(693,437,cs)
);
},
{
closed = 1;
nodes = (
(579,322,o),
(546,213,o),
(483,143,cs),
(415,68,o),
(339,47,o),
(240,47,cs),
(142,47,l),
(300,683,l),
(340,683,ls),
(495,683,o),
(579,608,o),
(579,457,cs)
);
}
);
width = 702;
}
);
unicode = 68;
}
{
glyphname = E;
layers = (
{
hints = (
{
horizontal = 1;
place = (0,49);
type = Stem;
},
{
horizontal = 1;
place = (350,49);
type = Stem;
},
{
horizontal = 1;
place = (681,49);
type = Stem;
}
);
layerId = "C81813BF-B5F5-4CE8-9C14-91E07284E92C";
shapes = (
{
closed = 1;
nodes = (
(628,738,l),
(609,736,o),
(558,730,o),
(533,730,cs),
(149,730,l),
(145,715,ls),
(144,710,o),
(142,703,o),
(142,700,cs),
(142,692,o),
(150,692,o),
(165,685,cs),
(181,678,o),
(191,673,o),
(191,662,cs),
(191,656,o),
(189,645,o),
(186,633,cs),
(49,85,ls),
(43,60,o),
(42,56,o),
(13,45,cs),
(-10,36,o),
(-15,37,o),
(-18,25,cs),
(-24,0,l),
(495,0,l),
(536,164,l),
(507,164,ls),
(495,164,o),
(490,157,o),
(482,144,cs),
(437,72,o),
(414,49,o),
(358,49,cs),
(142,49,l),
(217,349,l),
(313,349,ls),
(344,349,o),
(348,336,o),
(356,301,c),
(359,291,o),
(363,280,o),
(378,280,cs),
(403,280,l),
(448,462,l),
(426,462,ls),
(409,462,o),
(403,456,o),
(394,443,cs),
(368,408,o),
(360,399,o),
(323,399,cs),
(229,399,l),
(300,681,l),
(468,681,ls),
(539,681,o),
(538,668,o),
(546,606,cs),
(547,595,o),
(553,590,o),
(568,590,cs),
(591,590,l)
);
}
);
width = 588;
}
);
unicode = 69;
}
{
glyphname = F;
layers = (
{
hints = (
{
horizontal = 1;
place = (0,20);
type = Stem;
},
{
horizontal = 1;
place = (347,49);
type = Stem;
},
{
horizontal = 1;
place = (681,49);
type = Stem;
}
);
layerId = "C81813BF-B5F5-4CE8-9C14-91E07284E92C";
shapes = (
{
closed = 1;
nodes = (
(659,738,l),
(641,736,o),
(599,730,o),
(564,730,cs),
(149,730,l),
(145,715,ls),
(144,710,o),
(142,703,o),
(142,700,cs),
(142,692,o),
(150,692,o),
(165,685,cs),
(181,678,o),
(191,673,o),
(191,662,cs),
(191,656,o),
(189,645,o),
(186,633,cs),
(49,85,ls),
(43,60,o),
(42,56,o),
(13,45,cs),
(-10,36,o),
(-14,37,o),
(-17,25,cs),
(-23,0,l),
(192,0,l),
(196,15,ls),
(197,20,o),
(199,27,o),
(199,30,cs),
(199,38,o),
(191,39,o),
(176,45,cs),
(160,51,o),
(149,57,o),
(149,68,cs),
(149,74,o),
(151,85,o),
(154,97,cs),
(216,346,l),
(336,346,ls),
(367,346,o),
(372,332,o),
(381,297,cs),
(383,287,o),
(386,276,o),
(400,276,cs),
(425,276,l),
(471,458,l),
(450,458,ls),
(433,458,o),
(428,451,o),
(419,439,cs),
(393,403,o),
(385,396,o),
(347,396,cs),
(228,396,l),
(300,681,l),
(498,681,ls),
(570,681,o),
(576,659,o),
(577,604,c),
(577,594,o),
(580,588,o),
(596,588,cs),
(622,588,l)
);
}
);
width = 563;
}
);
unicode = 70;
}
{
glyphname = G;
layers = (
{
hints = (
{
horizontal = 1;
place = (-10,49);
type = Stem;
},
{
horizontal = 1;
place = (691,49);
type = Stem;
},
{
place = (51,111);
type = Stem;
}
);
layerId = "C81813BF-B5F5-4CE8-9C14-91E07284E92C";
shapes = (
{
closed = 1;
nodes = (
(669,693,ls),
(662,693,o),
(660,690,o),
(645,681,cs),
(638,677,o),
(634,679,o),
(619,688,cs),
(562,723,o),
(516,740,o),
(441,740,cs),
(232,740,o),
(54,543,o),
(54,306,cs),
(54,139,o),
(157,-10,o),
(378,-10,cs),
(478,-10,o),
(563,27,o),
(632,56,c),
(638,77,ls),
(641,87,o),
(637,87,o),
(617,94,cs),
(592,102,o),
(592,112,o),
(596,130,cs),
(626,251,ls),
(630,269,o),
(642,299,o),
(648,315,c),
(484,315,l),
(478,290,ls),
(476,280,o),
(479,279,o),
(499,270,cs),
(520,260,o),
(528,251,o),
(524,233,cs),
(497,125,ls),
(486,81,o),
(466,36,o),
(380,36,cs),
(250,36,o),
(163,131,o),
(163,288,cs),
(163,497,o),
(283,691,o),
(440,691,cs),
(538,691,o),
(595,627,o),
(604,533,c),
(604,525,o),
(607,519,o),
(619,519,cs),
(650,519,l),
(694,693,l)
);
}
);
width = 701;
}
);
unicode = 71;
}
{
glyphname = H;
layers = (
{
hints = (
{
horizontal = 1;
place = (0,20);
type = Stem;
},
{
horizontal = 1;
place = (353,49);
type = Stem;
},
{
horizontal = 1;
place = (730,-20);
target = down;
type = TopGhost;
}
);
layerId = "C81813BF-B5F5-4CE8-9C14-91E07284E92C";
shapes = (
{
closed = 1;
nodes = (
(598,730,l),
(594,715,ls),
(593,710,o),
(591,703,o),
(591,700,cs),
(591,692,o),
(599,691,o),
(614,685,cs),
(630,679,o),
(640,673,o),
(640,662,cs),
(640,656,o),
(638,645,o),
(635,633,cs),
(577,402,l),
(230,402,l),
(291,645,ls),
(297,670,o),
(298,674,o),
(327,685,cs),
(350,694,o),
(354,693,o),
(357,705,cs),
(363,730,l),
(149,730,l),
(145,715,ls),
(144,710,o),
(142,703,o),
(142,700,cs),
(142,692,o),
(150,692,o),
(165,685,cs),
(181,678,o),
(191,673,o),
(191,662,cs),
(191,656,o),
(189,645,o),
(186,633,cs),
(49,85,ls),
(43,60,o),
(42,56,o),
(13,45,cs),
(-10,36,o),
(-14,37,o),
(-17,25,cs),
(-23,0,l),
(191,0,l),
(195,15,ls),
(196,20,o),
(198,27,o),
(198,30,cs),
(198,38,o),
(190,39,o),
(175,45,cs),
(159,51,o),
(149,57,o),
(149,68,cs),
(149,74,o),
(151,85,o),
(154,97,cs),
(217,350,l),
(564,350,l),
(498,85,ls),
(492,60,o),
(491,56,o),
(462,45,cs),
(439,36,o),
(435,37,o),
(432,25,cs),
(426,0,l),
(640,0,l),
(644,15,ls),
(645,20,o),
(647,27,o),
(647,30,cs),
(647,38,o),
(639,38,o),
(624,45,cs),
(608,52,o),
(598,57,o),
(598,68,cs),
(598,74,o),
(600,85,o),
(603,97,cs),
(740,645,ls),
(746,670,o),
(747,674,o),
(776,685,cs),
(799,694,o),
(803,693,o),
(806,705,cs),
(812,730,l)
);
}
);
width = 746;
}
);
unicode = 72;
}
{
glyphname = I;
layers = (
{
hints = (
{
horizontal = 1;
place = (0,20);
type = Stem;
},
{
horizontal = 1;
place = (730,-20);
target = down;
type = TopGhost;
}
);
layerId = "C81813BF-B5F5-4CE8-9C14-91E07284E92C";
shapes = (
{
closed = 1;
nodes = (
(151,730,l),
(147,715,ls),
(146,710,o),
(144,703,o),
(144,700,cs),
(144,692,o),
(153,692,o),
(168,685,cs),
(184,678,o),
(194,673,o),
(194,662,cs),
(194,656,o),
(192,645,o),
(189,633,cs),
(52,85,ls),
(46,60,o),
(45,56,o),
(16,45,cs),
(-7,36,o),
(-12,37,o),
(-15,25,cs),
(-21,0,l),
(195,0,l),
(199,15,ls),
(200,20,o),
(202,27,o),
(202,30,cs),
(202,38,o),
(193,39,o),
(178,45,cs),
(162,51,o),
(152,57,o),
(152,68,cs),
(152,74,o),
(154,85,o),
(157,97,cs),
(294,645,ls),
(300,670,o),
(301,674,o),
(330,685,cs),
(353,694,o),
(358,693,o),
(361,705,cs),
(367,730,l)
);
}
);
width = 304;
}
);
unicode = 73;
}
{
glyphname = J;
layers = (
{
hints = (
{
horizontal = 1;
place = (-10,41);
type = Stem;
},
{
horizontal = 1;
place = (730,-20);
target = down;
type = TopGhost;
},
{
place = (-36,118);
type = Stem;
}
);
layerId = "C81813BF-B5F5-4CE8-9C14-91E07284E92C";
shapes = (
{
closed = 1;
nodes = (
(312,730,l),
(308,715,ls),
(307,710,o),
(305,703,o),
(305,700,cs),
(305,692,o),
(314,692,o),
(329,685,cs),
(345,678,o),
(355,673,o),
(355,662,cs),
(355,656,o),
(353,645,o),
(350,633,cs),
(236,160,ls),
(213,66,o),
(161,31,o),
(109,31,cs),
(82,31,o),
(55,48,o),
(51,65,c),
(75,78,o),
(84,98,o),
(84,122,cs),
(84,149,o),
(65,168,o),
(32,168,cs),
(-10,168,o),
(-33,130,o),
(-33,89,cs),
(-33,37,o),
(12,-10,o),
(98,-10,cs),
(229,-10,o),
(319,78,o),
(349,203,cs),
(455,645,ls),
(461,670,o),
(462,674,o),
(491,685,cs),
(514,694,o),
(518,693,o),
(521,705,cs),
(527,730,l)
);
}
);
width = 452;
}
);
unicode = 74;
}
{
glyphname = K;
layers = (
{
hints = (
{
horizontal = 1;
place = (0,20);
type = Stem;
},
{
horizontal = 1;
place = (730,-20);
target = down;
type = TopGhost;
}
);
layerId = "C81813BF-B5F5-4CE8-9C14-91E07284E92C";
shapes = (
{
closed = 1;
nodes = (
(502,730,l),
(497,711,ls),
(494,699,o),
(496,696,o),
(515,688,cs),
(530,682,o),
(550,678,o),
(548,668,cs),
(546,662,o),
(530,649,o),
(514,636,cs),
(228,400,l),
(291,645,ls),
(297,670,o),
(298,674,o),
(327,685,cs),
(350,694,o),
(354,693,o),
(357,705,cs),
(363,730,l),
(149,730,l),
(145,715,ls),
(144,710,o),
(142,703,o),
(142,700,cs),
(142,692,o),
(150,692,o),
(165,685,cs),
(181,678,o),
(191,673,o),
(191,662,cs),
(191,656,o),
(189,645,o),
(186,633,cs),
(49,85,ls),
(43,60,o),
(42,56,o),
(13,45,cs),
(-10,36,o),
(-14,37,o),
(-17,25,cs),
(-23,0,l),
(191,0,l),
(195,15,ls),
(196,20,o),
(198,27,o),
(198,30,cs),
(198,38,o),
(190,39,o),
(175,45,cs),
(159,51,o),
(149,57,o),
(149,68,cs),
(149,74,o),
(151,85,o),
(154,97,cs),
(222,374,l),
(415,90,ls),
(422,79,o),
(432,64,o),
(430,58,cs),
(429,53,o),
(424,47,o),
(415,43,cs),
(396,35,o),
(386,32,o),
(384,24,cs),
(378,0,l),
(606,0,l),
(612,24,ls),
(614,33,o),
(609,33,o),
(589,43,cs),
(565,55,o),
(545,71,o),
(534,87,cs),
(313,409,l),
(593,630,ls),
(630,659,o),
(642,669,o),
(683,682,cs),
(718,693,o),
(720,693,o),
(723,706,cs),
(729,730,l)
);
}
);
width = 657;
}
);
unicode = 75;
}
{
glyphname = L;
layers = (
{
hints = (
{
horizontal = 1;
place = (0,49);
type = Stem;
},
{
horizontal = 1;
place = (730,-20);
target = down;
type = TopGhost;
}
);
layerId = "C81813BF-B5F5-4CE8-9C14-91E07284E92C";
shapes = (
{
closed = 1;
nodes = (
(505,166,ls),
(493,166,o),
(487,160,o),
(480,146,c),
(434,75,o),
(411,49,o),
(355,49,cs),
(142,49,l),
(291,645,ls),
(297,670,o),
(298,674,o),
(327,685,cs),
(350,694,o),
(354,693,o),
(357,705,cs),
(363,730,l),
(149,730,l),
(145,715,ls),
(144,710,o),
(142,703,o),
(142,700,cs),
(142,692,o),
(150,692,o),
(165,685,cs),
(181,678,o),
(191,673,o),
(191,662,cs),
(191,656,o),
(189,645,o),
(186,633,cs),
(49,85,ls),
(43,60,o),
(42,56,o),
(13,45,cs),
(-10,36,o),
(-16,37,o),
(-19,25,cs),
(-25,0,l),
(492,0,l),
(534,166,l)
);
}
);
width = 571;
}
);
unicode = 76;
}
{
glyphname = M;
layers = (
{
hints = (
{
horizontal = 1;
place = (-1,20);
type = Stem;
},
{
horizontal = 1;
place = (730,-20);
target = down;
type = TopGhost;
}
);
layerId = "C81813BF-B5F5-4CE8-9C14-91E07284E92C";
shapes = (
{
closed = 1;
nodes = (
(742,730,l),
(402,161,l),
(347,730,l),
(149,730,l),
(145,715,ls),
(144,710,o),
(142,703,o),
(142,700,cs),
(142,692,o),
(150,692,o),
(165,685,cs),
(181,678,o),
(191,673,o),
(191,662,cs),
(191,656,o),
(189,645,o),
(186,633,cs),
(55,110,ls),
(49,88,o),
(36,69,o),
(11,52,cs),
(-15,35,o),
(-21,34,o),
(-23,26,cs),
(-29,0,l),
(151,0,l),
(157,26,ls),
(159,34,o),
(152,34,o),
(135,50,c),
(123,64,o),
(117,76,o),
(117,93,cs),
(117,106,o),
(120,119,o),
(124,135,cs),
(256,663,l),
(320,11,ls),
(321,4,o),
(325,-1,o),
(343,-1,cs),
(357,-1,o),
(367,5,o),
(371,11,cs),
(757,649,l),
(616,85,ls),
(610,60,o),
(609,56,o),
(580,45,cs),
(557,36,o),
(553,37,o),
(550,25,cs),
(544,0,l),
(756,0,l),
(760,15,ls),
(761,20,o),
(763,27,o),
(763,30,cs),
(763,38,o),
(755,39,o),
(740,45,cs),
(724,51,o),
(714,57,o),
(714,68,cs),
(714,74,o),
(716,85,o),
(719,97,cs),
(856,645,ls),
(862,670,o),
(863,674,o),
(892,685,cs),
(915,694,o),
(919,693,o),
(922,705,cs),
(928,730,l)
);
}
);
width = 862;
}
);
unicode = 77;
}
{
glyphname = N;
layers = (
{
hints = (
{
horizontal = 1;
place = (-5,20);
type = Stem;
},
{
horizontal = 1;
place = (730,-20);
target = down;
type = TopGhost;
}
);
layerId = "C81813BF-B5F5-4CE8-9C14-91E07284E92C";
shapes = (
{
closed = 1;
nodes = (
(607,730,l),
(600,704,ls),
(598,696,o),
(606,696,o),
(623,680,c),
(635,666,o),
(641,654,o),
(641,637,cs),
(641,624,o),
(638,611,o),
(634,595,cs),
(534,190,l),
(317,730,l),
(149,730,l),
(145,715,ls),
(144,710,o),
(142,703,o),
(142,700,cs),
(142,692,o),
(150,692,o),
(165,685,cs),
(181,678,o),
(191,673,o),
(191,662,cs),
(191,656,o),
(189,644,o),
(186,633,cs),
(55,110,ls),
(49,88,o),
(36,69,o),
(11,52,cs),
(-15,35,o),
(-21,34,o),
(-23,26,cs),
(-29,0,l),
(151,0,l),
(157,26,ls),
(159,34,o),
(152,34,o),
(135,50,c),
(123,64,o),
(117,76,o),
(117,93,cs),
(117,106,o),
(120,118,o),
(124,135,cs),
(248,632,l),
(507,-5,l),
(548,-5,l),
(703,620,ls),
(708,640,o),
(722,661,o),
(747,678,cs),
(773,695,o),
(779,696,o),
(781,704,cs),
(788,730,l)
);
}
);
width = 713;
}
);
unicode = 78;
}
{
glyphname = O;
layers = (
{
hints = (
{
horizontal = 1;
place = (-10,49);
type = Stem;
},
{
horizontal = 1;
place = (691,49);
type = Stem;
},
{
place = (53,111);
type = Stem;
},
{
place = (608,111);
type = Stem;
}
);
layerId = "C81813BF-B5F5-4CE8-9C14-91E07284E92C";
shapes = (
{
closed = 1;
nodes = (
(722,612,o),
(617,740,o),
(450,740,cs),
(217,740,o),
(56,520,o),
(56,287,cs),
(56,112,o),
(167,-10,o),
(330,-10,cs),
(558,-10,o),
(722,208,o),
(722,443,cs)
);
},
{
closed = 1;
nodes = (
(615,262,o),
(504,39,o),
(333,39,cs),
(223,39,o),
(163,119,o),
(163,255,cs),
(163,452,o),
(267,691,o),
(447,691,cs),
(555,691,o),
(615,611,o),
(615,476,cs)
);
}
);
width = 731;
}
);
unicode = 79;
}
{
glyphname = P;
layers = (
{
hints = (
{
horizontal = 1;
place = (0,20);
type = Stem;
},
{
horizontal = 1;
place = (326,49);
type = Stem;
},
{
horizontal = 1;
place = (681,49);
type = Stem;
},
{
place = (508,111);
type = Stem;
}
);
layerId = "C81813BF-B5F5-4CE8-9C14-91E07284E92C";
shapes = (
{
closed = 1;
nodes = (
(622,651,o),
(555,730,o),
(397,730,cs),
(149,730,l),
(145,715,ls),
(144,710,o),
(142,703,o),
(142,700,cs),
(142,692,o),
(150,692,o),
(165,685,cs),
(181,678,o),
(191,673,o),
(191,662,cs),
(191,656,o),
(189,645,o),
(186,633,cs),
(49,85,ls),
(43,60,o),
(42,56,o),
(13,45,cs),
(-10,36,o),
(-14,37,o),
(-17,25,cs),
(-23,0,l),
(191,0,l),
(195,15,ls),
(196,20,o),
(198,27,o),
(198,30,cs),
(198,38,o),
(190,39,o),
(175,45,cs),
(159,51,o),
(149,57,o),
(149,68,cs),
(149,74,o),
(151,85,o),
(154,97,cs),
(212,326,l),
(298,326,ls),
(527,326,o),
(622,443,o),
(622,562,cs)
);
},
{
closed = 1;
nodes = (
(509,457,o),
(450,378,o),
(311,378,cs),
(224,378,l),
(300,681,l),
(362,681,ls),
(463,681,o),
(509,631,o),
(509,562,cs)
);
}
);
width = 581;
}
);
unicode = 80;
}
{
glyphname = Q;
layers = (
{
hints = (
{
horizontal = 1;
place = (-172,77);
type = Stem;
},
{
horizontal = 1;
place = (691,49);
type = Stem;
},
{
place = (53,111);
type = Stem;
},
{
place = (608,111);
type = Stem;
}
);
layerId = "C81813BF-B5F5-4CE8-9C14-91E07284E92C";
shapes = (
{
closed = 1;
nodes = (
(722,612,o),
(617,740,o),
(450,740,cs),
(217,740,o),
(56,520,o),
(56,287,cs),
(56,134,o),
(139,24,o),
(269,-4,c),
(299,-24,o),
(321,-40,o),
(370,-90,cs),
(413,-133,o),
(452,-172,o),
(526,-172,cs),
(598,-172,o),
(656,-135,o),
(683,-113,c),
(692,-76,l),
(672,-84,o),
(644,-94,o),
(617,-94,cs),
(567,-94,o),
(538,-86,o),
(491,-62,cs),
(450,-41,o),
(403,-18,o),
(374,-7,c),
(579,19,o),
(722,224,o),
(722,443,cs)
);
},
{
closed = 1;
nodes = (
(615,262,o),
(503,38,o),
(332,38,cs),
(222,38,o),
(163,119,o),
(163,255,cs),
(163,452,o),
(267,691,o),
(447,691,cs),
(555,691,o),
(615,611,o),
(615,476,cs)
);
}
);
width = 731;
}
);
unicode = 81;
}
{
glyphname = R;
layers = (
{
hints = (
{
horizontal = 1;
place = (0,20);
type = Stem;
},
{
horizontal = 1;
place = (336,49);
type = Stem;
},
{
horizontal = 1;
place = (681,49);
type = Stem;
},
{
place = (518,111);
type = Stem;
}
);
layerId = "C81813BF-B5F5-4CE8-9C14-91E07284E92C";
shapes = (
{
closed = 1;
nodes = (
(632,658,o),
(563,730,o),
(413,730,cs),
(149,730,l),
(145,715,ls),
(144,710,o),
(142,703,o),
(142,700,cs),
(142,692,o),
(150,692,o),
(165,685,cs),
(181,678,o),
(191,673,o),
(191,662,cs),
(191,656,o),
(189,645,o),
(186,633,cs),
(49,85,ls),
(43,60,o),
(42,56,o),
(13,45,cs),
(-10,36,o),
(-14,37,o),
(-17,25,cs),
(-23,0,l),
(191,0,l),
(195,15,ls),
(196,20,o),
(198,27,o),
(198,30,cs),
(198,38,o),
(190,39,o),
(175,45,cs),
(159,51,o),
(149,57,o),
(149,68,cs),
(149,74,o),
(151,85,o),
(154,97,cs),
(214,336,l),
(246,336,ls),
(329,336,o),
(355,260,o),
(390,176,cs),
(464,0,l),
(606,0,l),
(611,24,ls),
(613,34,o),
(606,36,o),
(579,46,cs),
(549,57,o),
(533,90,o),
(516,132,cs),
(449,300,o),
(428,332,o),
(385,351,c),
(552,375,o),
(632,466,o),
(632,568,cs)
);
},
{
closed = 1;
nodes = (
(517,452,o),
(450,388,o),
(316,388,cs),
(227,388,l),
(300,681,l),
(379,681,ls),
(463,681,o),
(517,642,o),
(517,567,cs)
);
}
);
width = 651;
}
);
unicode = 82;
}
{
glyphname = S;
layers = (
{
hints = (
{
horizontal = 1;
place = (-10,49);
type = Stem;
},
{
horizontal = 1;
place = (39,168);
type = Stem;
},
{
horizontal = 1;
place = (691,49);
type = Stem;
},
{
place = (114,93);
type = Stem;
},
{
place = (418,93);
type = Stem;
}
);
layerId = "C81813BF-B5F5-4CE8-9C14-91E07284E92C";
shapes = (
{
closed = 1;
nodes = (
(535,708,ls),
(527,708,o),
(526,707,o),
(512,699,cs),
(501,692,o),
(494,696,o),
(484,702,cs),
(434,732,o),
(383,740,o),
(345,740,cs),
(207,740,o),
(117,645,o),
(117,541,cs),
(117,472,o),
(141,408,o),
(225,365,cs),
(258,348,o),
(285,335,o),
(324,315,cs),
(378,288,o),
(422,257,o),
(422,194,cs),
(422,98,o),
(353,39,o),
(255,39,cs),
(179,39,o),
(106,79,o),
(79,187,cs),
(75,205,o),
(71,209,o),
(61,209,cs),
(29,209,l),
(-20,13,l),
(9,13,ls),
(16,13,o),
(27,17,o),
(35,27,cs),
(41,35,o),
(46,37,o),
(55,37,cs),
(60,37,o),
(67,35,o),
(74,32,cs),
(96,22,o),
(165,-10,o),
(249,-10,cs),
(417,-10,o),
(514,114,o),
(514,228,cs),
(514,306,o),
(476,358,o),
(376,408,cs),
(347,422,o),
(303,443,o),
(271,462,cs),
(229,487,o),
(208,523,o),
(208,570,cs),
(208,640,o),
(264,691,o),
(340,691,cs),
(423,691,o),
(461,635,o),
(471,548,cs),
(472,540,o),
(474,535,o),
(485,534,c),
(517,534,l),
(561,708,l)
);
}
);
width = 551;
}
);
unicode = 83;
}
{
glyphname = T;
layers = (
{
hints = (
{
horizontal = 1;
place = (0,20);
type = Stem;
},
{
horizontal = 1;
place = (681,49);
type = Stem;
}
);
layerId = "C81813BF-B5F5-4CE8-9C14-91E07284E92C";
shapes = (
{
closed = 1;
nodes = (
(715,738,l),
(699,736,o),
(628,730,o),
(612,730,cs),
(225,730,ls),
(197,730,o),
(143,736,o),
(126,738,c),
(88,585,l),
(111,585,ls),
(128,585,o),
(143,595,o),
(149,607,cs),
(179,661,o),
(204,682,o),
(241,682,cs),
(356,682,l),
(207,85,ls),
(201,60,o),
(200,56,o),
(171,45,cs),
(148,36,o),
(142,37,o),
(139,25,cs),
(133,0,l),
(351,0,l),
(355,15,ls),
(356,20,o),
(358,27,o),
(358,30,cs),
(358,37,o),
(350,39,o),
(335,45,cs),
(319,51,o),
(307,57,o),
(307,68,cs),
(307,74,o),
(309,85,o),
(312,97,cs),
(458,682,l),
(576,682,ls),
(614,682,o),
(626,661,o),
(631,607,c),
(631,595,o),
(639,585,o),
(657,585,cs),
(677,585,l)
);
}
);
width = 623;
}
);
unicode = 84;
}
{
glyphname = U;
layers = (
{
hints = (
{
horizontal = 1;
place = (-10,64);
type = Stem;
},
{
horizontal = 1;
place = (730,-20);
target = down;
type = TopGhost;
},
{
place = (73,103);
type = Stem;
}
);
layerId = "C81813BF-B5F5-4CE8-9C14-91E07284E92C";
shapes = (
{
closed = 1;
nodes = (
(613,730,l),
(606,704,ls),
(604,696,o),
(612,696,o),
(629,680,c),
(641,666,o),
(647,654,o),
(647,637,cs),
(647,624,o),
(644,611,o),
(640,595,cs),
(558,267,ls),
(525,135,o),
(464,58,o),
(332,58,cs),
(238,58,o),
(180,112,o),
(180,196,cs),
(180,215,o),
(185,244,o),
(190,265,cs),
(285,645,ls),
(291,670,o),
(292,674,o),
(321,685,cs),
(344,694,o),
(348,693,o),
(351,705,cs),
(357,730,l),
(143,730,l),
(139,715,ls),
(138,710,o),
(136,703,o),
(136,700,cs),
(136,692,o),
(144,692,o),
(159,685,cs),
(175,678,o),
(185,673,o),
(185,662,cs),
(185,656,o),
(183,645,o),
(180,633,cs),
(87,259,ls),
(81,237,o),
(76,206,o),
(76,185,cs),
(76,72,o),
(154,-10,o),
(315,-10,cs),
(491,-10,o),
(586,124,o),
(620,258,cs),
(711,620,ls),
(717,642,o),
(730,661,o),
(755,678,cs),
(781,695,o),
(787,696,o),
(789,704,cs),
(796,730,l)
);
}
);
width = 714;
}
);
unicode = 85;
}
{
glyphname = V;
layers = (
{
hints = (
{
horizontal = 1;
place = (-8,20);
type = Stem;
},
{
horizontal = 1;
place = (730,-20);
target = down;
type = TopGhost;
}
);
layerId = "C81813BF-B5F5-4CE8-9C14-91E07284E92C";
shapes = (
{
closed = 1;
nodes = (
(604,730,l),
(600,715,ls),
(597,704,o),
(603,699,o),
(620,691,cs),
(636,684,o),
(646,682,o),
(646,668,cs),
(646,662,o),
(634,637,o),
(625,623,cs),
(331,150,l),
(260,621,ls),
(259,631,o),
(258,652,o),
(258,660,cs),
(258,670,o),
(266,680,o),
(284,688,cs),
(307,699,o),
(312,700,o),
(315,710,cs),
(320,730,l),
(103,730,l),
(96,705,ls),
(93,695,o),
(98,694,o),
(117,685,cs),
(139,675,o),
(153,663,o),
(156,643,cs),
(255,2,ls),
(256,-6,o),
(262,-8,o),
(269,-8,cs),
(278,-8,ls),
(287,-8,o),
(291,-5,o),
(296,2,cs),
(700,628,ls),
(724,665,o),
(732,669,o),
(766,687,cs),
(784,696,o),
(789,700,o),
(792,710,cs),
(797,730,l)
);
}
);
width = 693;
}
);
unicode = 86;
}
{
glyphname = W;
layers = (
{
hints = (
{
horizontal = 1;
place = (-8,20);
type = Stem;
},
{
horizontal = 1;
place = (730,-20);
target = down;
type = TopGhost;
},
{
place = (561,78);
type = Stem;
}
);
layerId = "C81813BF-B5F5-4CE8-9C14-91E07284E92C";
shapes = (
{
closed = 1;
nodes = (
(903,730,l),
(900,715,ls),
(898,704,o),
(903,699,o),
(921,691,cs),
(937,684,o),
(947,681,o),
(947,666,cs),
(947,660,o),
(936,636,o),
(928,622,cs),
(662,160,l),
(623,619,ls),
(622,630,o),
(623,655,o),
(625,663,cs),
(627,673,o),
(633,680,o),
(651,688,cs),
(675,699,o),
(680,700,o),
(682,710,cs),
(687,730,l),
(472,730,l),
(466,705,ls),
(464,695,o),
(467,694,o),
(486,685,cs),
(509,675,o),
(521,661,o),
(523,643,cs),
(534,555,l),
(307,162,l),
(260,619,ls),
(259,633,o),
(260,655,o),
(262,663,cs),
(264,673,o),
(268,680,o),
(286,688,cs),
(309,699,o),
(314,700,o),
(316,710,cs),
(321,730,l),
(104,730,l),
(98,705,ls),
(96,695,o),
(99,694,o),
(119,685,cs),
(141,675,o),
(156,661,o),
(158,643,cs),
(229,2,ls),
(230,-5,o),
(235,-8,o),
(242,-8,cs),
(255,-8,ls),
(262,-8,o),
(268,-5,o),
(272,2,cs),
(544,474,l),
(582,2,ls),
(583,-5,o),
(587,-8,o),
(595,-8,cs),
(609,-8,ls),
(616,-8,o),
(623,-3,o),
(626,2,cs),
(1003,628,ls),
(1026,667,o),
(1034,668,o),
(1069,687,cs),
(1087,696,o),
(1092,700,o),
(1094,710,cs),
(1099,730,l)
);
}
);
width = 998;
}
);
unicode = 87;
}
{
glyphname = X;
layers = (
{
hints = (
{
horizontal = 1;
place = (0,20);
type = Stem;
},
{
horizontal = 1;
place = (730,-20);
target = down;
type = TopGhost;
}
);
layerId = "C81813BF-B5F5-4CE8-9C14-91E07284E92C";
shapes = (
{
closed = 1;
nodes = (
(516,730,l),
(513,715,l),
(510,705,o),
(514,695,o),
(525,691,c),
(544,682,o),
(561,677,o),
(561,665,cs),
(561,658,o),
(551,643,o),
(544,635,cs),
(369,434,l),
(292,626,ls),
(286,640,o),
(284,657,o),
(284,664,cs),
(284,677,o),
(298,685,o),
(311,691,cs),
(331,699,o),
(333,700,o),
(336,713,cs),
(340,730,l),
(127,730,l),
(121,706,ls),
(119,697,o),
(118,692,o),
(139,682,cs),
(166,668,o),
(173,663,o),
(184,636,cs),
(292,370,l),
(56,110,ls),
(20,71,o),
(0,52,o),
(-33,42,cs),
(-52,36,o),
(-57,29,o),
(-59,20,cs),
(-64,0,l),
(144,0,l),
(147,15,l),
(150,25,o),
(146,35,o),
(135,39,c),
(116,48,o),
(98,53,o),
(98,65,cs),
(98,72,o),
(109,87,o),
(116,95,cs),
(313,320,l),
(400,104,ls),
(405,91,o),
(408,74,o),
(408,66,cs),
(408,55,o),
(394,45,o),
(379,39,cs),
(360,31,o),
(359,30,o),
(356,17,cs),
(352,0,l),
(564,0,l),
(570,24,ls),
(572,33,o),
(572,38,o),
(553,48,cs),
(526,63,o),
(519,68,o),
(508,94,cs),
(390,384,l),
(604,620,ls),
(640,659,o),
(660,678,o),
(693,688,cs),
(712,694,o),
(717,701,o),
(719,710,cs),
(724,730,l)
);
}
);
width = 636;
}
);
unicode = 88;
}
{
glyphname = Y;
layers = (
{
hints = (
{
horizontal = 1;
place = (0,20);
type = Stem;
},
{
horizontal = 1;
place = (730,-20);
target = down;
type = TopGhost;
}
);
layerId = "C81813BF-B5F5-4CE8-9C14-91E07284E92C";
shapes = (
{
closed = 1;
nodes = (
(542,730,l),
(538,714,ls),
(535,704,o),
(541,699,o),
(560,691,cs),
(574,685,o),
(586,682,o),
(586,671,cs),
(586,665,o),
(572,646,o),
(561,633,cs),
(357,391,l),
(265,634,ls),
(262,642,o),
(257,662,o),
(257,667,cs),
(257,676,o),
(267,683,o),
(285,691,cs),
(309,702,o),
(310,703,o),
(313,714,cs),
(317,730,l),
(99,730,l),
(93,705,ls),
(91,695,o),
(94,694,o),
(114,685,cs),
(135,675,o),
(145,663,o),
(153,643,cs),
(274,332,l),
(213,85,ls),
(207,60,o),
(206,56,o),
(177,45,cs),
(154,36,o),
(149,37,o),
(146,25,cs),
(140,0,l),
(356,0,l),
(360,15,ls),
(361,20,o),
(363,27,o),
(363,30,cs),
(363,38,o),
(354,39,o),
(339,45,cs),
(323,51,o),
(313,57,o),
(313,68,cs),
(313,74,o),
(315,85,o),
(318,97,cs),
(377,334,l),
(630,630,ls),
(666,672,o),
(672,672,o),
(704,688,cs),
(722,697,o),
(727,700,o),
(730,710,cs),
(735,730,l)
);
}
);
width = 625;
}
);
unicode = 89;
}
{
glyphname = Z;
layers = (
{
hints = (
{
horizontal = 1;
place = (0,49);
type = Stem;
},
{
horizontal = 1;
place = (681,49);
type = Stem;
}
);
layerId = "C81813BF-B5F5-4CE8-9C14-91E07284E92C";
shapes = (
{
closed = 1;
nodes = (
(259,730,ls),
(235,730,o),
(187,736,o),
(170,738,c),
(132,584,l),
(152,584,ls),
(170,584,o),
(181,594,o),
(188,606,cs),
(219,660,o),
(246,681,o),
(285,681,cs),
(518,681,l),
(-5,55,ls),
(-19,38,o),
(-26,31,o),
(-30,18,cs),
(-35,0,l),
(399,0,ls),
(426,0,o),
(483,-6,o),
(500,-8,c),
(543,164,l),
(515,164,ls),
(502,164,o),
(498,158,o),
(489,144,cs),
(444,73,o),
(416,49,o),
(360,49,cs),
(109,49,l),
(632,676,ls),
(644,690,o),
(653,697,o),
(658,717,cs),
(661,730,l)
);
}
);
width = 597;
}
);
unicode = 90;
}
{
glyphname = bracketleft;
layers = (
{
hints = (
{
horizontal = 1;
place = (-190,41);
type = Stem;
},
{
horizontal = 1;
place = (689,41);
type = Stem;
}
);
layerId = "C81813BF-B5F5-4CE8-9C14-91E07284E92C";
shapes = (
{
closed = 1;
nodes = (
(188,730,l),
(-42,-190,l),
(196,-190,l),
(207,-149,l),
(54,-149,l),
(262,689,l),
(415,689,l),
(426,730,l)
);
}
);
width = 349;
}
);
unicode = 91;
}
{
glyphname = backslash;
layers = (
{
hints = (
{
horizontal = 1;
place = (730,-20);
target = down;
type = TopGhost;
}
);
layerId = "C81813BF-B5F5-4CE8-9C14-91E07284E92C";
shapes = (
{
closed = 1;
nodes = (
(175,730,l),
(114,730,l),
(344,-190,l),
(404,-190,l)
);
}
);
width = 446;
}
);
unicode = 92;
}
{
glyphname = bracketright;
layers = (
{
hints = (
{
horizontal = 1;
place = (-190,41);
type = Stem;
},
{
horizontal = 1;
place = (689,41);
type = Stem;
}
);
layerId = "C81813BF-B5F5-4CE8-9C14-91E07284E92C";
shapes = (
{
closed = 1;
nodes = (
(147,730,l),
(136,689,l),
(289,689,l),
(81,-149,l),
(-72,-149,l),
(-83,-190,l),
(155,-190,l),
(385,730,l)
);
}
);
width = 349;
}
);
unicode = 93;
}
{
glyphname = asciicircum;
layers = (
{
hints = (
{
horizontal = 1;
place = (730,-20);
target = down;
type = TopGhost;
}
);
layerId = "C81813BF-B5F5-4CE8-9C14-91E07284E92C";
shapes = (
{
closed = 1;
nodes = (
(437,730,l),
(373,730,l),
(177,324,l),
(247,324,l),
(405,661,l),
(563,324,l),
(633,324,l)
);
}
);
width = 756;
}
);
unicode = 94;
}
{
glyphname = underscore;
layers = (
{
hints = (
{
horizontal = 1;
place = (-103,41);
type = Stem;
}
);
layerId = "C81813BF-B5F5-4CE8-9C14-91E07284E92C";
shapes = (
{
closed = 1;
nodes = (
(-71,-60,l),
(-82,-103,l),
(424,-103,l),
(435,-60,l)
);
}
);
width = 500;
}
);
unicode = 95;
}
{
glyphname = a;
layers = (
{
hints = (
{
horizontal = 1;
place = (-9,64);
type = Stem;
},
{
horizontal = 1;
place = (386,49);
type = Stem;
},
{
place = (19,93);
type = Stem;
},
{
place = (290,85);
type = Stem;
}
);
layerId = "C81813BF-B5F5-4CE8-9C14-91E07284E92C";
shapes = (
{
closed = 1;
nodes = (
(507,68,l),
(484,55,o),
(467,47,o),
(449,47,cs),
(424,47,o),
(415,62,o),
(415,78,cs),
(415,86,o),
(417,95,o),
(419,105,c),
(517,486,ls),
(519,494,o),
(512,499,o),
(505,499,cs),
(500,499,o),
(492,498,o),
(487,493,c),
(450,463,ls),
(443,458,o),
(436,460,o),
(429,464,cs),
(404,481,o),
(376,496,o),
(326,496,cs),
(161,496,o),
(24,348,o),
(24,168,cs),
(24,64,o),
(72,-9,o),
(179,-9,cs),
(241,-9,o),
(291,31,o),
(331,68,c),
(331,33,o),
(342,-10,o),
(405,-10,cs),
(460,-10,o),
(500,17,o),
(517,32,c)
);
},
{
closed = 1;
nodes = (
(330,108,l),
(289,76,o),
(262,53,o),
(217,53,cs),
(158,53,o),
(122,90,o),
(122,171,cs),
(122,297,o),
(182,448,o),
(320,448,cs),
(361,448,o),
(388,426,o),
(405,406,c)
);
}
);
width = 547;
}
);
unicode = 97;
}
{
glyphname = b;
layers = (
{
hints = (
{
horizontal = 1;
place = (-9,49);
type = Stem;
},
{
horizontal = 1;
place = (368,64);
type = Stem;
},
{
horizontal = 1;
place = (730,-20);
target = down;
type = TopGhost;
},
{
place = (31,93);
type = Stem;
},
{
place = (360,93);
type = Stem;
}
);
layerId = "C81813BF-B5F5-4CE8-9C14-91E07284E92C";
shapes = (
{
closed = 1;
nodes = (
(519,438,o),
(454,493,o),
(360,493,cs),
(286,493,o),
(235,448,o),
(205,428,c),
(282,730,l),
(129,730,l),
(123,708,ls),
(121,699,o),
(129,698,o),
(145,689,cs),
(168,676,o),
(176,668,o),
(169,641,cs),
(63,217,ls),
(55,186,o),
(49,159,o),
(49,131,cs),
(49,78,o),
(87,-10,o),
(219,-10,cs),
(399,-10,o),
(519,161,o),
(519,323,cs)
);
},
{
closed = 1;
nodes = (
(421,195,o),
(364,38,o),
(220,38,cs),
(156,38,o),
(137,79,o),
(137,127,cs),
(137,139,o),
(142,163,o),
(145,177,cs),
(191,369,l),
(233,404,o),
(263,430,o),
(324,430,cs),
(382,430,o),
(421,402,o),
(421,320,cs)
);
}
);
width = 541;
}
);
unicode = 98;
}
{
glyphname = c;
layers = (
{
hints = (
{
horizontal = 1;
place = (-9,49);
type = Stem;
},
{
horizontal = 1;
place = (392,41);
type = Stem;
},
{
place = (26,93);
type = Stem;
},
{
place = (291,103);
type = Stem;
}
);
layerId = "C81813BF-B5F5-4CE8-9C14-91E07284E92C";
shapes = (
{
closed = 1;
nodes = (
(437,436,o),
(389,494,o),
(295,494,cs),
(134,494,o),
(29,341,o),
(29,191,cs),
(29,65,o),
(109,-10,o),
(221,-10,cs),
(318,-10,o),
(381,50,o),
(414,96,c),
(388,126,l),
(348,84,o),
(306,45,o),
(238,45,cs),
(154,45,o),
(126,114,o),
(126,197,cs),
(126,315,o),
(178,452,o),
(275,452,cs),
(313,452,o),
(336,436,o),
(346,425,c),
(338,410,o),
(330,390,o),
(330,378,cs),
(330,348,o),
(355,332,o),
(383,332,cs),
(410,332,o),
(437,348,o),
(437,394,cs)
);
}
);
width = 440;
}
);
unicode = 99;
}
{
glyphname = d;
layers = (
{
hints = (
{
horizontal = 1;
place = (-9,64);
type = Stem;
},
{
horizontal = 1;
place = (384,49);
type = Stem;
},
{
horizontal = 1;
place = (730,-20);
target = down;
type = TopGhost;
},
{
place = (21,93);
type = Stem;
},
{
place = (305,85);
type = Stem;
}
);
layerId = "C81813BF-B5F5-4CE8-9C14-91E07284E92C";
shapes = (
{
closed = 1;
nodes = (
(434,730,l),
(430,708,ls),
(428,699,o),
(439,698,o),
(455,689,cs),
(478,676,o),
(486,667,o),
(480,642,cs),
(430,438,l),
(408,463,o),
(383,494,o),
(312,494,cs),
(162,494,o),
(24,348,o),
(24,168,cs),
(24,64,o),
(71,-9,o),
(182,-9,cs),
(245,-9,o),
(308,32,o),
(348,70,c),
(349,33,o),
(358,-10,o),
(421,-10,cs),
(475,-10,o),
(516,17,o),
(533,32,c),
(523,68,l),
(500,55,o),
(483,47,o),
(465,47,cs),
(440,47,o),
(432,62,o),
(432,78,cs),
(432,86,o),
(434,95,o),
(436,105,cs),
(593,730,l)
);
},
{
closed = 1;
nodes = (
(346,109,l),
(304,79,o),
(264,54,o),
(220,54,cs),
(160,54,o),
(121,90,o),
(121,171,cs),
(121,276,o),
(170,440,o),
(314,440,cs),
(367,440,o),
(394,413,o),
(414,380,c)
);
}
);
width = 560;
}
);
unicode = 100;
}
{
glyphname = e;
layers = (
{
hints = (
{
horizontal = 1;
place = (-9,55);
type = Stem;
},
{
horizontal = 1;
place = (192,41);
type = Stem;
},
{
horizontal = 1;
place = (385,49);
type = Stem;
},
{
place = (27,93);
type = Stem;
},
{
place = (319,85);
type = Stem;
}
);
layerId = "C81813BF-B5F5-4CE8-9C14-91E07284E92C";
shapes = (
{
closed = 1;
nodes = (
(449,453,o),
(394,495,o),
(311,495,cs),
(146,495,o),
(30,346,o),
(30,188,cs),
(30,131,o),
(55,-10,o),
(219,-10,cs),
(353,-10,o),
(416,78,o),
(433,104,c),
(411,131,l),
(352,74,o),
(295,46,o),
(244,46,cs),
(183,46,o),
(123,81,o),
(123,195,cs),
(123,204,o),
(125,218,o),
(125,223,c),
(173,223,ls),
(248,223,o),
(449,239,o),
(449,385,cs)
);
},
{
closed = 1;
nodes = (
(361,285,o),
(245,266,o),
(129,263,c),
(153,383,o),
(221,450,o),
(295,450,cs),
(331,450,o),
(361,430,o),
(361,383,cs)
);
}
);
width = 457;
}
);
unicode = 101;
}
{
glyphname = f;
layers = (
{
hints = (
{
horizontal = 1;
place = (0,20);
type = Stem;
},
{
horizontal = 1;
place = (371,49);
type = Stem;
},
{
horizontal = 1;
place = (618,112);
type = Stem;
}
);
layerId = "C81813BF-B5F5-4CE8-9C14-91E07284E92C";
shapes = (
{
closed = 1;
nodes = (
(439,700,o),
(421,730,o),
(367,730,cs),
(264,730,o),
(186,633,o),
(148,510,cs),
(142,491,o),
(137,480,o),
(120,475,c),
(89,464,o),
(82,461,o),
(79,450,cs),
(75,434,l),
(130,434,l),
(30,0,l),
(121,0,l),
(221,434,l),
(348,434,l),
(359,479,l),
(229,479,l),
(246,547,ls),
(277,669,o),
(315,679,o),
(334,685,c),
(332,636,o),
(362,622,o),
(383,622,cs),
(416,622,o),
(435,644,o),
(437,674,cs)
);
}
);
width = 309;
}
);
unicode = 102;
}
{
glyphname = g;
layers = (
{
hints = (
{
horizontal = 1;
place = (-198,41);
type = Stem;
},
{
horizontal = 1;
place = (-13,77);
type = Stem;
},
{
horizontal = 1;
place = (121,41);
type = Stem;
},
{
horizontal = 1;
place = (364,77);
type = Stem;
},
{
place = (-8,103);
type = Stem;
},
{
place = (322,85);
type = Stem;
}
);
layerId = "C81813BF-B5F5-4CE8-9C14-91E07284E92C";
shapes = (
{
closed = 1;
nodes = (
(556,491,o),
(534,503,o),
(506,503,cs),
(468,503,o),
(434,477,o),
(410,452,c),
(380,479,o),
(338,499,o),
(280,499,cs),
(159,499,o),
(58,414,o),
(58,305,cs),
(58,257,o),
(78,216,o),
(121,186,c),
(2,32,ls),
(-3,25,o),
(-12,17,o),
(-12,10,cs),
(-12,1,o),
(-1,-1,o),
(8,-1,cs),
(18,-1,o),
(96,13,o),
(185,13,cs),
(298,13,o),
(341,-12,o),
(341,-53,cs),
(341,-126,o),
(242,-155,o),
(170,-155,cs),
(138,-155,o),
(101,-146,o),
(95,-143,c),
(97,-137,o),
(100,-126,o),
(100,-121,cs),
(100,-93,o),
(81,-71,o),
(49,-71,cs),
(19,-71,o),
(-10,-88,o),
(-10,-122,cs),
(-10,-171,o),
(44,-198,o),
(159,-198,cs),
(300,-198,o),
(423,-135,o),
(423,-20,cs),
(423,27,o),
(378,83,o),
(220,83,cs),
(165,83,o),
(127,79,o),
(98,77,c),
(157,165,l),
(175,159,o),
(208,152,o),
(230,152,cs),
(366,152,o),
(452,245,o),
(452,348,cs),
(452,370,o),
(445,398,o),
(431,424,c),
(436,431,o),
(451,444,o),
(460,444,cs),
(468,444,o),
(476,438,o),
(481,434,cs),
(489,429,o),
(496,422,o),
(513,422,cs),
(532,422,o),
(556,434,o),
(556,460,cs)
);
},
{
closed = 1;
nodes = (
(366,280,o),
(318,194,o),
(244,194,cs),
(182,194,o),
(147,236,o),
(147,297,cs),
(147,367,o),
(182,455,o),
(272,455,cs),
(337,455,o),
(366,408,o),
(366,356,cs)
);
}
);
width = 515;
}
);
unicode = 103;
}
{
glyphname = h;
layers = (
{
hints = (
{
horizontal = 1;
place = (-9,49);
type = Stem;
},
{
horizontal = 1;
place = (377,55);
type = Stem;
},
{
horizontal = 1;
place = (730,-20);
target = down;
type = TopGhost;
},
{
place = (301,93);
type = Stem;
}
);
layerId = "C81813BF-B5F5-4CE8-9C14-91E07284E92C";
shapes = (
{
closed = 1;
nodes = (
(528,68,l),
(505,55,o),
(488,47,o),
(470,47,cs),
(445,47,o),
(436,63,o),
(436,80,cs),
(436,88,o),
(438,99,o),
(440,107,cs),
(499,329,ls),
(504,347,o),
(506,363,o),
(506,379,cs),
(506,450,o),
(474,493,o),
(387,493,cs),
(314,493,o),
(255,447,o),
(211,412,c),
(291,730,l),
(138,730,l),
(134,708,ls),
(132,699,o),
(139,698,o),
(156,689,cs),
(178,677,o),
(184,667,o),
(178,642,cs),
(18,0,l),
(109,0,l),
(199,360,l),
(240,398,o),
(298,435,o),
(348,435,cs),
(395,435,o),
(414,414,o),
(414,368,cs),
(414,358,o),
(413,345,o),
(410,332,cs),
(350,110,ls),
(345,90,o),
(343,73,o),
(343,58,cs),
(343,21,o),
(363,-10,o),
(426,-10,cs),
(480,-10,o),
(521,17,o),
(538,32,c)
);
}
);
width = 565;
}
);
unicode = 104;
}
{
glyphname = i;
layers = (
{
hints = (
{
horizontal = 1;
place = (-9,49);
type = Stem;
},
{
horizontal = 1;
place = (569,112);
type = Stem;
},
{
place = (50,93);
type = Stem;
},
{
place = (178,111);
type = Stem;
}
);
layerId = "C81813BF-B5F5-4CE8-9C14-91E07284E92C";
shapes = (
{
closed = 1;
nodes = (
(317,702,o),
(292,730,o),
(258,730,cs),
(225,730,o),
(198,702,o),
(198,669,cs),
(198,637,o),
(224,609,o),
(257,609,cs),
(291,609,o),
(317,637,o),
(317,669,cs)
);
},
{
closed = 1;
nodes = (
(241,68,l),
(218,55,o),
(201,47,o),
(183,47,cs),
(158,47,o),
(150,63,o),
(150,80,cs),
(150,88,o),
(152,97,o),
(154,107,c),
(251,490,l),
(216,490,l),
(161,468,o),
(124,455,o),
(75,455,c),
(70,437,l),
(69,431,o),
(68,426,o),
(68,423,cs),
(68,416,o),
(80,416,o),
(92,415,cs),
(119,413,o),
(131,400,o),
(131,381,cs),
(131,375,o),
(128,362,o),
(126,353,cs),
(65,110,ls),
(60,90,o),
(57,73,o),
(57,58,cs),
(57,21,o),
(76,-10,o),
(139,-10,cs),
(194,-10,o),
(234,17,o),
(251,32,c)
);
}
);
width = 285;
}
);
unicode = 105;
}
{
glyphname = j;
layers = (
{
hints = (
{
horizontal = 1;
place = (-198,106);
type = Stem;
},
{
horizontal = 1;
place = (569,112);
type = Stem;
},
{
place = (-147,103);
type = Stem;
},
{
place = (164,111);
type = Stem;
}
);
layerId = "C81813BF-B5F5-4CE8-9C14-91E07284E92C";
shapes = (
{
closed = 1;
nodes = (
(294,702,o),
(269,730,o),
(235,730,cs),
(202,730,o),
(174,702,o),
(174,669,cs),
(174,637,o),
(200,609,o),
(234,609,cs),
(268,609,o),
(294,637,o),
(294,669,cs)
);
},
{
closed = 1;
nodes = (
(215,490,l),
(160,468,o),
(123,455,o),
(74,455,c),
(69,437,l),
(68,431,o),
(67,426,o),
(67,423,cs),
(67,416,o),
(81,416,o),
(92,415,cs),
(120,413,o),
(131,400,o),
(131,381,cs),
(131,375,o),
(128,363,o),
(126,353,cs),
(38,-42,ls),
(15,-147,o),
(-23,-156,o),
(-40,-160,c),
(-40,-111,o),
(-67,-93,o),
(-88,-93,cs),
(-121,-93,o),
(-142,-113,o),
(-142,-142,cs),
(-142,-170,o),
(-121,-198,o),
(-72,-198,cs),
(42,-198,o),
(117,-99,o),
(150,48,cs),
(249,490,l)
);
}
);
width = 267;
}
);
unicode = 106;
}
{
glyphname = k;
layers = (
{
hints = (
{
horizontal = 1;
place = (-9,49);
type = Stem;
},
{
horizontal = 1;
place = (377,55);
type = Stem;
},
{
horizontal = 1;
place = (730,-20);
target = down;
type = TopGhost;
},
{
place = (346,93);
type = Stem;
}
);
layerId = "C81813BF-B5F5-4CE8-9C14-91E07284E92C";
shapes = (
{
closed = 1;
nodes = (
(503,68,l),
(480,55,o),
(463,48,o),
(444,48,cs),
(413,48,o),
(397,91,o),
(385,124,cs),
(371,162,o),
(363,196,o),
(355,235,c),
(409,262,o),
(502,302,o),
(502,397,cs),
(502,452,o),
(466,493,o),
(398,493,cs),
(335,493,o),
(293,475,o),
(212,417,c),
(291,730,l),
(138,730,l),
(134,708,ls),
(132,699,o),
(139,698,o),
(156,689,cs),
(178,677,o),
(184,667,o),
(178,642,cs),
(18,0,l),
(109,0,l),
(151,171,l),
(193,179,o),
(233,185,o),
(274,197,c),
(304,40,o),
(344,-10,o),
(403,-10,cs),
(447,-10,o),
(495,17,o),
(512,32,c)
);
},
{
closed = 1;
nodes = (
(407,290,o),
(266,225,o),
(162,213,c),
(201,365,l),
(271,421,o),
(316,433,o),
(341,433,cs),
(390,433,o),
(407,408,o),
(407,371,cs)
);
}
);
width = 541;
}
);
unicode = 107;
}
{
glyphname = l;
layers = (
{
hints = (
{
horizontal = 1;
place = (-9,49);
type = Stem;
},
{
horizontal = 1;
place = (730,-20);
target = down;
type = TopGhost;
},
{
place = (38,93);
type = Stem;
}
);
layerId = "C81813BF-B5F5-4CE8-9C14-91E07284E92C";
shapes = (
{
closed = 1;
nodes = (
(144,730,l),
(139,708,ls),
(137,699,o),
(145,699,o),
(163,689,cs),
(184,677,o),
(190,666,o),
(185,645,cs),
(51,110,ls),
(46,90,o),
(43,73,o),
(43,58,cs),
(43,21,o),
(62,-10,o),
(125,-10,cs),
(180,-10,o),
(223,17,o),
(240,32,c),
(230,68,l),
(207,55,o),
(187,47,o),
(169,47,cs),
(144,47,o),
(136,63,o),
(136,80,cs),
(136,88,o),
(138,97,o),
(141,107,cs),
(296,730,l)
);
}
);
width = 270;
}
);
unicode = 108;
}
{
glyphname = m;
layers = (
{
hints = (
{
horizontal = 1;
place = (-9,49);
type = Stem;
},
{
horizontal = 1;
place = (377,55);
type = Stem;
},
{
place = (564,93);
type = Stem;
}
);
layerId = "C81813BF-B5F5-4CE8-9C14-91E07284E92C";
shapes = (
{
closed = 1;
nodes = (
(828,68,l),
(805,55,o),
(788,47,o),
(770,47,cs),
(745,47,o),
(736,63,o),
(736,80,cs),
(736,88,o),
(738,99,o),
(740,107,cs),
(799,329,ls),
(804,346,o),
(806,362,o),
(806,377,cs),
(806,447,o),
(758,493,o),
(670,493,cs),
(603,493,o),
(575,458,o),
(515,409,c),
(501,460,o),
(449,493,o),
(381,493,cs),
(303,493,o),
(260,445,o),
(219,410,c),
(239,490,l),
(211,490,l),
(156,468,o),
(120,455,o),
(71,455,c),
(66,437,l),
(65,431,o),
(64,426,o),
(64,423,cs),
(64,416,o),
(76,416,o),
(88,415,cs),
(115,413,o),
(127,400,o),
(127,381,cs),
(127,375,o),
(124,362,o),
(122,353,cs),
(34,0,l),
(125,0,l),
(215,365,l),
(248,396,o),
(296,435,o),
(337,435,cs),
(391,435,o),
(419,411,o),
(419,368,cs),
(419,358,o),
(417,343,o),
(414,332,cs),
(331,0,l),
(422,0,l),
(514,371,l),
(546,403,o),
(593,435,o),
(633,435,cs),
(689,435,o),
(714,409,o),
(714,365,cs),
(714,354,o),
(713,344,o),
(710,332,cs),
(651,110,ls),
(646,90,o),
(643,73,o),
(643,58,cs),
(643,21,o),
(663,-10,o),
(726,-10,cs),
(781,-10,o),
(821,17,o),
(838,32,c)
);
}
);
width = 866;
}
);
unicode = 109;
}
{
glyphname = n;
layers = (
{
hints = (
{
horizontal = 1;
place = (-9,49);
type = Stem;
},
{
horizontal = 1;
place = (377,55);
type = Stem;
},
{
place = (315,93);
type = Stem;
}
);
layerId = "C81813BF-B5F5-4CE8-9C14-91E07284E92C";
shapes = (
{
closed = 1;
nodes = (
(544,68,l),
(521,55,o),
(504,47,o),
(486,47,cs),
(461,47,o),
(452,63,o),
(452,80,cs),
(452,88,o),
(454,99,o),
(456,107,cs),
(515,329,ls),
(520,347,o),
(522,363,o),
(522,379,cs),
(522,450,o),
(479,493,o),
(392,493,cs),
(317,493,o),
(262,445,o),
(217,410,c),
(238,490,l),
(211,490,l),
(156,468,o),
(120,455,o),
(71,455,c),
(66,437,l),
(65,431,o),
(64,426,o),
(64,423,cs),
(64,416,o),
(76,416,o),
(88,415,cs),
(115,413,o),
(127,400,o),
(127,381,cs),
(127,375,o),
(124,362,o),
(122,353,cs),
(34,0,l),
(125,0,l),
(214,360,l),
(249,395,o),
(300,435,o),
(352,435,cs),
(399,435,o),
(430,414,o),
(430,368,cs),
(430,358,o),
(429,345,o),
(426,332,cs),
(366,110,ls),
(361,90,o),
(358,73,o),
(358,58,cs),
(358,21,o),
(379,-10,o),
(442,-10,cs),
(496,-10,o),
(537,17,o),
(554,32,c)
);
}
);
width = 581;
}
);
unicode = 110;
}
{
glyphname = o;
layers = (
{
hints = (
{
horizontal = 1;
place = (-9,49);
type = Stem;
},
{
horizontal = 1;
place = (387,49);
type = Stem;
},
{
place = (26,93);
type = Stem;
},
{
place = (352,93);
type = Stem;
}
);
layerId = "C81813BF-B5F5-4CE8-9C14-91E07284E92C";
shapes = (
{
closed = 1;
nodes = (
(495,402,o),
(433,498,o),
(306,498,cs),
(141,498,o),
(29,358,o),
(29,200,cs),
(29,80,o),
(96,-10,o),
(222,-10,cs),
(383,-10,o),
(495,129,o),
(495,284,cs)
);
},
{
closed = 1;
nodes = (
(399,199,o),
(359,35,o),
(227,35,cs),
(139,35,o),
(125,112,o),
(125,184,cs),
(125,289,o),
(168,452,o),
(300,452,cs),
(387,452,o),
(399,374,o),
(399,304,cs)
);
}
);
width = 525;
}
);
unicode = 111;
}
{
glyphname = p;
layers = (
{
hints = (
{
horizontal = 1;
place = (-9,49);
type = Stem;
},
{
horizontal = 1;
place = (432,-20);
target = down;
type = TopGhost;
},
{
place = (371,93);
type = Stem;
}
);
layerId = "C81813BF-B5F5-4CE8-9C14-91E07284E92C";
shapes = (
{
closed = 1;
nodes = (
(531,429,o),
(476,493,o),
(378,493,cs),
(311,493,o),
(246,442,o),
(214,412,c),
(233,490,l),
(206,490,l),
(151,468,o),
(115,455,o),
(66,455,c),
(61,437,l),
(60,431,o),
(59,426,o),
(59,423,cs),
(59,416,o),
(72,416,o),
(83,415,cs),
(111,413,o),
(122,400,o),
(122,381,cs),
(122,375,o),
(120,362,o),
(117,353,c),
(-18,-190,l),
(74,-190,l),
(128,39,l),
(151,18,o),
(179,-10,o),
(241,-10,cs),
(416,-10,o),
(531,167,o),
(531,323,cs)
);
},
{
closed = 1;
nodes = (
(434,188,o),
(365,44,o),
(245,44,cs),
(192,44,o),
(165,70,o),
(145,97,c),
(210,361,l),
(237,389,o),
(287,430,o),
(343,430,cs),
(401,430,o),
(434,392,o),
(434,319,cs)
);
}
);
width = 554;
}
);
unicode = 112;
}
{
glyphname = q;
layers = (
{
hints = (
{
horizontal = 1;
place = (-4,55);
type = Stem;
},
{
horizontal = 1;
place = (386,49);
type = Stem;
},
{
place = (21,93);
type = Stem;
}
);
layerId = "C81813BF-B5F5-4CE8-9C14-91E07284E92C";
shapes = (
{
closed = 1;
nodes = (
(523,486,l),
(524,493,o),
(518,499,o),
(511,499,cs),
(507,499,o),
(499,498,o),
(493,493,cs),
(458,464,ls),
(451,459,o),
(442,461,o),
(435,465,cs),
(409,481,o),
(382,496,o),
(329,496,cs),
(165,496,o),
(24,341,o),
(24,173,cs),
(24,71,o),
(71,-5,o),
(183,-5,cs),
(244,-5,o),
(294,38,o),
(327,60,c),
(263,-190,l),
(355,-190,l)
);
},
{
closed = 1;
nodes = (
(338,106,l),
(301,78,o),
(264,56,o),
(219,56,cs),
(163,56,o),
(121,89,o),
(121,172,cs),
(121,307,o),
(186,447,o),
(323,447,cs),
(369,447,o),
(397,425,o),
(411,406,c)
);
}
);
width = 542;
}
);
unicode = 113;
}
{
glyphname = r;
layers = (
{
hints = (
{
horizontal = 1;
place = (0,20);
type = Stem;
},
{
horizontal = 1;
place = (320,112);
type = Stem;
},
{
place = (49,140);
type = Stem;
}
);
layerId = "C81813BF-B5F5-4CE8-9C14-91E07284E92C";
shapes = (
{
closed = 1;
nodes = (
(417,467,o),
(400,493,o),
(359,493,cs),
(320,493,o),
(246,448,o),
(200,367,c),
(196,367,l),
(200,394,o),
(204,421,o),
(204,446,cs),
(204,461,o),
(204,476,o),
(201,490,c),
(175,490,l),
(141,469,o),
(113,455,o),
(64,455,c),
(58,434,ls),
(57,429,o),
(57,426,o),
(57,423,cs),
(57,416,o),
(68,416,o),
(80,415,cs),
(107,413,o),
(121,398,o),
(121,378,cs),
(121,367,o),
(121,345,o),
(114,318,cs),
(35,0,l),
(126,0,l),
(187,251,ls),
(204,323,o),
(267,417,o),
(317,424,c),
(322,399,o),
(339,381,o),
(363,381,cs),
(398,381,o),
(417,407,o),
(417,440,cs)
);
}
);
width = 382;
}
);
unicode = 114;
}
{
glyphname = s;
layers = (
{
hints = (
{
horizontal = 1;
place = (-9,41);
type = Stem;
},
{
horizontal = 1;
place = (393,41);
type = Stem;
},
{
place = (2,103);
type = Stem;
},
{
place = (254,93);
type = Stem;
}
);
layerId = "C81813BF-B5F5-4CE8-9C14-91E07284E92C";
shapes = (
{
closed = 1;
nodes = (
(384,450,o),
(348,495,o),
(250,495,cs),
(155,495,o),
(70,429,o),
(70,346,cs),
(70,253,o),
(146,232,o),
(214,197,cs),
(248,180,o),
(285,157,o),
(285,115,cs),
(285,71,o),
(241,29,o),
(182,29,cs),
(147,29,o),
(113,42,o),
(90,64,c),
(100,79,o),
(104,88,o),
(104,105,cs),
(104,129,o),
(91,150,o),
(57,150,cs),
(22,150,o),
(2,122,o),
(2,92,cs),
(2,45,o),
(59,-10,o),
(166,-10,cs),
(301,-10,o),
(365,76,o),
(365,147,cs),
(365,199,o),
(340,235,o),
(262,271,c),
(183,309,o),
(148,333,o),
(148,376,cs),
(148,422,o),
(191,456,o),
(237,456,cs),
(269,456,o),
(277,450,o),
(298,443,c),
(291,425,o),
(286,415,o),
(286,404,cs),
(286,380,o),
(304,359,o),
(331,359,cs),
(358,359,o),
(384,379,o),
(384,416,cs)
);
}
);
width = 405;
}
);
unicode = 115;
}
{
glyphname = t;
layers = (
{
hints = (
{
horizontal = 1;
place = (-9,49);
type = Stem;
},
{
horizontal = 1;
place = (371,49);
type = Stem;
},
{
place = (40,93);
type = Stem;
}
);
layerId = "C81813BF-B5F5-4CE8-9C14-91E07284E92C";
shapes = (
{
closed = 1;
nodes = (
(232,479,l),
(272,637,l),
(197,628,ls),
(190,627,o),
(183,622,o),
(181,612,c),
(155,510,ls),
(150,491,o),
(142,485,o),
(121,477,cs),
(89,465,o),
(82,466,o),
(79,454,cs),
(74,434,l),
(131,434,l),
(52,112,ls),
(48,95,o),
(46,75,o),
(46,63,cs),
(46,19,o),
(68,-10,o),
(137,-10,cs),
(192,-10,o),
(240,16,o),
(257,31,c),
(247,68,l),
(224,55,o),
(197,48,o),
(181,48,cs),
(151,48,o),
(139,62,o),
(139,83,cs),
(139,87,o),
(142,109,o),
(144,119,cs),
(222,434,l),
(339,434,l),
(350,479,l)
);
}
);
width = 318;
}
);
unicode = 116;
}
{
glyphname = u;
layers = (
{
hints = (
{
horizontal = 1;
place = (-9,49);
type = Stem;
},
{
horizontal = 1;
place = (429,-20);
target = down;
type = TopGhost;
},
{
place = (38,93);
type = Stem;
},
{
place = (303,85);
type = Stem;
}
);
layerId = "C81813BF-B5F5-4CE8-9C14-91E07284E92C";
shapes = (
{
closed = 1;
nodes = (
(535,68,l),
(512,55,o),
(495,47,o),
(477,47,cs),
(451,47,o),
(443,62,o),
(443,78,cs),
(443,86,o),
(446,96,o),
(448,105,cs),
(545,490,l),
(511,490,l),
(456,468,o),
(419,455,o),
(370,455,c),
(365,437,l),
(364,431,o),
(363,426,o),
(363,423,cs),
(363,416,o),
(375,416,o),
(387,415,cs),
(414,413,o),
(426,400,o),
(426,381,cs),
(426,375,o),
(424,361,o),
(421,351,cs),
(362,115,l),
(326,78,o),
(270,47,o),
(220,47,cs),
(171,47,o),
(148,69,o),
(148,118,cs),
(148,127,o),
(151,147,o),
(155,160,c),
(239,490,l),
(203,490,l),
(148,468,o),
(112,455,o),
(63,455,c),
(58,437,l),
(57,431,o),
(56,426,o),
(56,423,cs),
(56,416,o),
(68,416,o),
(80,415,cs),
(107,413,o),
(119,400,o),
(119,381,cs),
(119,375,o),
(116,362,o),
(114,353,cs),
(67,175,ls),
(62,155,o),
(57,129,o),
(57,112,cs),
(57,40,o),
(90,-10,o),
(176,-10,cs),
(257,-10,o),
(313,30,o),
(358,66,c),
(358,29,o),
(369,-10,o),
(425,-10,cs),
(479,-10,o),
(528,17,o),
(545,32,c)
);
}
);
width = 575;
}
);
unicode = 117;
}
{
glyphname = v;
layers = (
{
hints = (
{
horizontal = 1;
place = (-9,55);
type = Stem;
},
{
place = (39,93);
type = Stem;
},
{
place = (373,56);
type = Stem;
}
);
layerId = "C81813BF-B5F5-4CE8-9C14-91E07284E92C";
shapes = (
{
closed = 1;
nodes = (
(490,444,o),
(482,525,o),
(412,525,cs),
(380,525,o),
(351,500,o),
(351,468,cs),
(351,430,o),
(376,412,o),
(430,402,c),
(430,340,o),
(427,269,o),
(388,190,cs),
(350,113,o),
(287,49,o),
(221,49,cs),
(165,49,o),
(149,83,o),
(149,124,cs),
(149,136,o),
(154,170,o),
(158,185,cs),
(240,490,l),
(215,490,l),
(160,468,o),
(111,455,o),
(62,455,c),
(56,434,ls),
(54,428,o),
(55,426,o),
(55,423,cs),
(55,416,o),
(67,416,o),
(79,415,cs),
(106,413,o),
(117,400,o),
(117,381,cs),
(117,375,o),
(116,364,o),
(113,353,cs),
(67,184,ls),
(62,164,o),
(58,136,o),
(58,119,cs),
(58,32,o),
(120,-10,o),
(207,-10,cs),
(378,-10,o),
(490,210,o),
(490,371,cs)
);
}
);
width = 513;
}
);
unicode = 118;
}
{
glyphname = w;
layers = (
{
hints = (
{
horizontal = 1;
place = (-9,55);
type = Stem;
},
{
place = (38,93);
type = Stem;
},
{
place = (621,56);
type = Stem;
}
);
layerId = "C81813BF-B5F5-4CE8-9C14-91E07284E92C";
shapes = (
{
closed = 1;
nodes = (
(774,444,o),
(766,525,o),
(696,525,cs),
(664,525,o),
(635,500,o),
(635,468,cs),
(635,430,o),
(660,412,o),
(714,402,c),
(714,340,o),
(711,269,o),
(672,190,cs),
(634,113,o),
(570,49,o),
(504,49,cs),
(452,49,o),
(437,83,o),
(437,124,cs),
(437,136,o),
(440,164,o),
(445,182,cs),
(523,483,l),
(433,483,l),
(337,113,l),
(304,81,o),
(261,46,o),
(220,46,cs),
(163,46,o),
(147,78,o),
(147,122,cs),
(147,131,o),
(150,154,o),
(154,166,c),
(239,490,l),
(215,490,l),
(160,468,o),
(111,455,o),
(62,455,c),
(57,437,ls),
(55,431,o),
(55,426,o),
(55,423,cs),
(55,416,o),
(67,416,o),
(79,415,cs),
(106,413,o),
(117,400,o),
(117,381,cs),
(117,375,o),
(116,364,o),
(113,353,cs),
(67,184,ls),
(62,164,o),
(57,138,o),
(57,121,cs),
(57,49,o),
(96,-10,o),
(186,-10,cs),
(264,-10,o),
(313,35,o),
(356,79,c),
(377,19,o),
(429,-10,o),
(491,-10,cs),
(662,-10,o),
(774,210,o),
(774,371,cs)
);
}
);
width = 798;
}
);
unicode = 119;
}
{
glyphname = x;
layers = (
{
hints = (
{
horizontal = 1;
place = (-9,106);
type = Stem;
},
{
horizontal = 1;
place = (331,100);
type = Stem;
}
);
layerId = "C81813BF-B5F5-4CE8-9C14-91E07284E92C";
shapes = (
{
closed = 1;
nodes = (
(506,476,o),
(483,491,o),
(454,491,cs),
(389,491,o),
(335,401,o),
(273,313,c),
(244,443,o),
(211,492,o),
(155,492,cs),
(108,492,o),
(61,461,o),
(44,446,c),
(53,410,l),
(76,423,o),
(93,432,o),
(111,432,cs),
(142,432,o),
(161,391,o),
(173,357,cs),
(185,326,o),
(195,285,o),
(207,234,c),
(151,150,o),
(124,115,o),
(78,72,c),
(64,93,o),
(47,102,o),
(28,102,cs),
(-8,102,o),
(-25,74,o),
(-25,53,cs),
(-25,23,o),
(-8,-7,o),
(32,-7,cs),
(82,-7,o),
(134,46,o),
(221,183,c),
(250,36,o),
(286,-10,o),
(342,-10,cs),
(392,-10,o),
(435,17,o),
(451,32,c),
(443,68,l),
(420,55,o),
(402,47,o),
(384,47,cs),
(353,47,o),
(335,89,o),
(322,122,cs),
(310,155,o),
(296,218,o),
(286,264,c),
(349,353,o),
(370,378,o),
(410,414,c),
(426,392,o),
(439,386,o),
(457,386,cs),
(479,386,o),
(506,406,o),
(506,441,cs)
);
}
);
width = 481;
}
);
unicode = 120;
}
{
glyphname = y;
layers = (
{
hints = (
{
horizontal = 1;
place = (-195,119);
type = Stem;
},
{
horizontal = 1;
place = (377,55);
type = Stem;
},
{
place = (-97,111);
type = Stem;
},
{
place = (324,111);
type = Stem;
}
);
layerId = "C81813BF-B5F5-4CE8-9C14-91E07284E92C";
shapes = (
{
closed = 1;
nodes = (
(498,467,o),
(477,493,o),
(442,493,cs),
(406,493,o),
(383,462,o),
(383,439,cs),
(383,412,o),
(402,395,o),
(423,383,c),
(417,366,o),
(411,348,o),
(399,322,cs),
(374,268,o),
(318,156,o),
(275,93,c),
(266,157,o),
(250,253,o),
(231,334,cs),
(206,438,o),
(180,493,o),
(109,493,cs),
(65,493,o),
(20,464,o),
(1,447,c),
(8,411,l),
(33,424,o),
(50,432,o),
(68,432,cs),
(100,432,o),
(117,393,o),
(128,363,c),
(145,312,o),
(181,154,o),
(204,-2,c),
(176,-39,o),
(100,-128,o),
(44,-143,c),
(44,-99,o),
(23,-74,o),
(-12,-74,cs),
(-45,-74,o),
(-64,-103,o),
(-64,-127,cs),
(-64,-166,o),
(-35,-195,o),
(15,-195,cs),
(118,-195,o),
(211,-66,o),
(278,28,cs),
(372,159,o),
(498,354,o),
(498,438,cs)
);
}
);
width = 485;
}
);
unicode = 121;
}
{
glyphname = z;
layers = (
{
hints = (
{
horizontal = 1;
place = (-9,20);
type = Stem;
},
{
horizontal = 1;
place = (14,70);
type = Stem;
},
{
horizontal = 1;
place = (353,77);
type = Stem;
},
{
place = (287,93);
type = Stem;
}
);
layerId = "C81813BF-B5F5-4CE8-9C14-91E07284E92C";
shapes = (
{
closed = 1;
nodes = (
(450,496,l),
(427,485,o),
(402,472,o),
(328,472,cs),
(253,472,o),
(263,491,o),
(191,491,cs),
(84,491,o),
(42,386,o),
(42,375,c),
(69,357,l),
(86,379,o),
(108,412,o),
(150,412,cs),
(193,412,o),
(220,401,o),
(254,401,cs),
(278,401,o),
(311,405,o),
(345,417,c),
(347,414,l),
(-32,26,l),
(-18,-2,l),
(39,9,o),
(68,17,o),
(106,17,cs),
(188,17,o),
(195,-10,o),
(267,-10,cs),
(342,-10,o),
(421,35,o),
(421,137,cs),
(421,188,o),
(386,201,o),
(367,201,cs),
(344,201,o),
(322,187,o),
(322,159,cs),
(322,115,o),
(362,116,o),
(362,81,cs),
(362,55,o),
(342,47,o),
(331,47,cs),
(284,47,o),
(262,85,o),
(178,85,cs),
(139,85,o),
(111,81,o),
(86,78,c),
(84,81,l),
(464,469,l)
);
}
);
width = 443;
}
);
unicode = 122;
}
{
glyphname = braceleft;
layers = (
{
hints = (
{
horizontal = 1;
place = (733,-20);
target = down;
type = TopGhost;
},
{
place = (57,85);
type = Stem;
}
);
layerId = "C81813BF-B5F5-4CE8-9C14-91E07284E92C";
shapes = (
{
closed = 1;
nodes = (
(464,733,l),
(332,733,o),
(208,655,o),
(187,541,cs),
(179,499,o),
(179,458,o),
(172,420,cs),
(157,336,o),
(114,304,o),
(39,290,c),
(33,263,l),
(84,252,o),
(100,220,o),
(100,174,cs),
(100,159,o),
(98,143,o),
(95,126,cs),
(88,88,o),
(72,47,o),
(64,5,cs),
(61,-10,o),
(60,-25,o),
(60,-39,cs),
(60,-131,o),
(118,-197,o),
(232,-197,c),
(239,-168,l),
(165,-147,o),
(142,-122,o),
(142,-67,cs),
(142,-51,o),
(145,-34,o),
(148,-14,cs),
(156,33,o),
(167,67,o),
(173,101,cs),
(175,114,o),
(176,126,o),
(176,138,cs),
(176,203,o),
(143,252,o),
(95,273,c),
(164,298,o),
(247,348,o),
(264,445,cs),
(270,478,o),
(271,513,o),
(279,560,cs),
(294,642,o),
(349,682,o),
(457,704,c)
);
}
);
width = 386;
}
);
unicode = 123;
}
{
glyphname = bar;
layers = (
{
hints = (
{
horizontal = 1;
place = (730,-20);
target = down;
type = TopGhost;
},
{
place = (25,67);
type = Stem;
}
);
layerId = "C81813BF-B5F5-4CE8-9C14-91E07284E92C";
shapes = (
{
closed = 1;
nodes = (
(90,730,l),
(28,730,l),
(28,-190,l),
(90,-190,l)
);
}
);
width = 70;
}
);
unicode = 124;
}
{
glyphname = braceright;
layers = (
{
hints = (
{
horizontal = 1;
place = (733,-20);
target = down;
type = TopGhost;
},
{
place = (231,85);
type = Stem;
}
);
layerId = "C81813BF-B5F5-4CE8-9C14-91E07284E92C";
shapes = (
{
closed = 1;
nodes = (
(346,273,l),
(295,284,o),
(279,316,o),
(279,362,cs),
(279,377,o),
(281,393,o),
(284,410,cs),
(291,448,o),
(307,489,o),
(315,531,cs),
(318,546,o),
(319,561,o),
(319,575,cs),
(319,667,o),
(261,733,o),
(147,733,c),
(140,704,l),
(214,683,o),
(237,658,o),
(237,603,cs),
(237,587,o),
(234,570,o),
(231,550,cs),
(223,503,o),
(212,469,o),
(206,435,cs),
(204,422,o),
(203,410,o),
(203,398,cs),
(203,333,o),
(236,284,o),
(284,263,c),
(215,238,o),
(132,188,o),
(115,91,cs),
(109,58,o),
(108,23,o),
(100,-24,cs),
(85,-106,o),
(31,-146,o),
(-78,-168,c),
(-85,-197,l),
(47,-197,o),
(171,-119,o),
(192,-5,cs),
(200,37,o),
(200,78,o),
(207,116,cs),
(222,200,o),
(265,232,o),
(340,246,c)
);
}
);
width = 386;
}
);
unicode = 125;
}
{
glyphname = asciitilde;
layers = (
{
hints = (
{
horizontal = 1;
place = (203,87);
type = Stem;
},
{
horizontal = 1;
place = (304,87);
type = Stem;
}
);
layerId = "C81813BF-B5F5-4CE8-9C14-91E07284E92C";
shapes = (
{
closed = 1;
nodes = (
(624,399,l),
(617,349,o),
(592,287,o),
(532,287,cs),
(499,287,o),
(465,317,o),
(419,348,cs),
(375,378,o),
(352,391,o),
(303,391,cs),
(209,391,o),
(141,299,o),
(136,197,c),
(180,197,l),
(187,247,o),
(213,309,o),
(272,309,cs),
(310,309,o),
(342,283,o),
(387,252,cs),
(438,217,o),
(463,203,o),
(501,203,cs),
(597,203,o),
(663,297,o),
(668,399,c)
);
}
);
width = 756;
}
);
unicode = 126;
}
{
glyphname = exclamdown;
layers = (
{
hints = (
{
horizontal = 1;
place = (420,127);
type = Stem;
},
{
place = (124,126);
type = Stem;
}
);
layerId = "C81813BF-B5F5-4CE8-9C14-91E07284E92C";
shapes = (
{
closed = 1;
nodes = (
(253,518,o),
(226,547,o),
(191,547,cs),
(155,547,o),
(127,518,o),
(127,483,cs),
(127,449,o),
(155,420,o),
(191,420,cs),
(226,420,o),
(253,449,o),
(253,483,cs)
);
},
{
closed = 1;
nodes = (
(174,335,o),
(166,346,o),
(152,346,cs),
(144,346,o),
(138,343,o),
(136,339,c),
(118,276,o),
(92,176,o),
(60,90,cs),
(24,-5,o),
(-2,-47,o),
(-17,-107,cs),
(-20,-117,o),
(-21,-128,o),
(-21,-138,cs),
(-21,-170,o),
(-5,-201,o),
(36,-201,cs),
(68,-201,o),
(89,-170,o),
(97,-136,cs),
(112,-77,o),
(109,-26,o),
(122,74,cs),
(133,165,o),
(160,265,o),
(173,330,cs)
);
}
);
width = 298;
}
);
unicode = 161;
}
{
glyphname = sterling;
layers = (
{
hints = (
{
horizontal = 1;
place = (-9,87);
type = Stem;
},
{
horizontal = 1;
place = (146,49);
type = Stem;
},
{
horizontal = 1;
place = (323,49);
type = Stem;
},
{
horizontal = 1;
place = (645,49);
type = Stem;
},
{
place = (-9,43);
type = Stem;
},
{
place = (177,103);
type = Stem;
},
{
place = (461,111);
type = Stem;
}
);
layerId = "C81813BF-B5F5-4CE8-9C14-91E07284E92C";
shapes = (
{
closed = 1;
nodes = (
(575,645,o),
(519,694,o),
(426,694,cs),
(276,694,o),
(180,566,o),
(180,447,cs),
(180,419,o),
(182,394,o),
(187,372,c),
(89,372,l),
(77,326,l),
(77,326,o),
(199,326,o),
(198,326,c),
(206,303,o),
(217,264,o),
(217,222,cs),
(217,204,o),
(210,183,o),
(206,169,c),
(182,182,o),
(150,193,o),
(119,193,cs),
(61,193,o),
(-6,148,o),
(-6,76,cs),
(-6,21,o),
(40,-9,o),
(85,-9,cs),
(145,-9,o),
(192,27,o),
(224,77,c),
(256,35,o),
(294,-9,o),
(362,-9,cs),
(435,-9,o),
(481,39,o),
(522,89,c),
(501,123,l),
(474,93,o),
(438,76,o),
(392,76,cs),
(338,76,o),
(299,107,o),
(258,136,c),
(281,180,o),
(301,226,o),
(301,269,cs),
(301,288,o),
(301,307,o),
(298,326,c),
(463,326,l),
(475,372,l),
(289,372,l),
(283,405,o),
(279,439,o),
(279,474,cs),
(279,574,o),
(341,648,o),
(427,648,cs),
(458,648,o),
(478,643,o),
(502,619,c),
(476,598,o),
(465,584,o),
(465,558,cs),
(465,525,o),
(491,511,o),
(517,511,cs),
(545,511,o),
(575,531,o),
(575,583,cs)
);
},
{
closed = 1;
nodes = (
(174,63,o),
(130,33,o),
(91,33,cs),
(54,33,o),
(41,55,o),
(41,81,cs),
(41,115,o),
(69,146,o),
(111,146,cs),
(147,146,o),
(172,132,o),
(191,113,c)
);
}
);
width = 546;
}
);
unicode = 163;
}
{
glyphname = degree;
layers = (
{
hints = (
{
horizontal = 1;
place = (472,49);
type = Stem;
},
{
horizontal = 1;
place = (681,49);
type = Stem;
},
{
place = (91,56);
type = Stem;
},
{
place = (295,56);
type = Stem;
}
);
layerId = "C81813BF-B5F5-4CE8-9C14-91E07284E92C";
shapes = (
{
closed = 1;
nodes = (
(370,668,o),
(307,730,o),
(232,730,cs),
(157,730,o),
(94,668,o),
(94,593,cs),
(94,518,o),
(157,456,o),
(232,456,cs),
(307,456,o),
(370,518,o),
(370,593,cs)
);
},
{
closed = 1;
nodes = (
(314,546,o),
(281,504,o),
(232,504,cs),
(182,504,o),
(149,546,o),
(149,593,cs),
(149,640,o),
(182,682,o),
(232,682,cs),
(281,682,o),
(314,640,o),
(314,593,cs)
);
}
);
width = 334;
}
);
unicode = 176;
}
{
glyphname = plusminus;
layers = (
{
hints = (
{
horizontal = 1;
place = (262,63);
type = Stem;
},
{
place = (360,63);
type = Stem;
}
);
layerId = "C81813BF-B5F5-4CE8-9C14-91E07284E92C";
shapes = (
{
closed = 1;
nodes = (
(656,414,l),
(427,414,l),
(427,631,l),
(363,631,l),
(363,414,l),
(134,414,l),
(134,352,l),
(363,352,l),
(363,135,l),
(427,135,l),
(427,352,l),
(656,352,l)
);
},
{
closed = 1;
nodes = (
(656,62,l),
(134,62,l),
(134,0,l),
(656,0,l)
);
}
);
width = 756;
}
);
unicode = 177;
}
{
glyphname = periodcentered;
layers = (
{
hints = (
{
horizontal = 1;
place = (-6,127);
type = Stem;
},
{
place = (3,126);
type = Stem;
}
);
layerId = "C81813BF-B5F5-4CE8-9C14-91E07284E92C";
shapes = (
{
closed = 1;
nodes = (
(195,349,o),
(167,378,o),
(131,378,cs),
(96,378,o),
(69,349,o),
(69,315,cs),
(69,280,o),
(96,251,o),
(131,251,cs),
(167,251,o),
(195,280,o),
(195,315,cs)
);
}
);
width = 234;
}
);
unicode = 183;
}
{
glyphname = questiondown;
layers = (
{
hints = (
{
horizontal = 1;
place = (-199,41);
type = Stem;
},
{
horizontal = 1;
place = (420,127);
type = Stem;
},
{
place = (-16,103);
type = Stem;
},
{
place = (219,126);
type = Stem;
}
);
layerId = "C81813BF-B5F5-4CE8-9C14-91E07284E92C";
shapes = (
{
closed = 1;
nodes = (
(343,518,o),
(316,547,o),
(281,547,cs),
(245,547,o),
(217,518,o),
(217,483,cs),
(217,449,o),
(245,420,o),
(281,420,cs),
(316,420,o),
(343,449,o),
(343,483,cs)
);
},
{
closed = 1;
nodes = (
(333,-51,o),
(312,-25,o),
(274,-25,cs),
(245,-25,o),
(222,-46,o),
(222,-83,cs),
(222,-94,o),
(226,-108,o),
(243,-125,c),
(228,-148,o),
(193,-161,o),
(168,-161,cs),
(127,-161,o),
(88,-138,o),
(88,-72,cs),
(88,2,o),
(116,28,o),
(187,121,cs),
(244,196,o),
(273,274,o),
(283,334,cs),
(284,338,o),
(275,348,o),
(262,348,cs),
(250,348,o),
(239,342,o),
(238,337,cs),
(220,257,o),
(196,201,o),
(102,121,cs),
(32,60,o),
(-13,18,o),
(-13,-57,cs),
(-13,-150,o),
(71,-199,o),
(161,-199,cs),
(266,-199,o),
(333,-139,o),
(333,-82,cs)
);
}
);
width = 439;
}
);
unicode = 191;
}
{
glyphname = multiply;
layers = (
{
layerId = "C81813BF-B5F5-4CE8-9C14-91E07284E92C";
shapes = (
{
closed = 1;
nodes = (
(438,293,l),
(630,484,l),
(586,528,l),
(395,336,l),
(204,528,l),
(160,484,l),
(352,293,l),
(160,102,l),
(204,58,l),
(395,250,l),
(586,58,l),
(630,102,l)
);
}
);
width = 756;
}
);
unicode = 215;
}
{
glyphname = divide;
layers = (
{
hints = (
{
horizontal = 1;
place = (47,127);
type = Stem;
},
{
horizontal = 1;
place = (262,64);
type = Stem;
},
{
horizontal = 1;
place = (412,127);
type = Stem;
},
{
place = (328,126);
type = Stem;
}
);
layerId = "C81813BF-B5F5-4CE8-9C14-91E07284E92C";
shapes = (
{
closed = 1;
nodes = (
(459,511,o),
(431,539,o),
(395,539,cs),
(359,539,o),
(331,511,o),
(331,475,cs),
(331,439,o),
(359,411,o),
(395,411,cs),
(431,411,o),
(459,439,o),
(459,475,cs)
);
},
{
closed = 1;
nodes = (
(656,324,l),
(134,324,l),
(134,262,l),
(656,262,l)
);
},
{
closed = 1;
nodes = (
(459,147,o),
(431,175,o),
(395,175,cs),
(359,175,o),
(331,147,o),
(331,111,cs),
(331,75,o),
(359,47,o),
(395,47,cs),
(431,47,o),
(459,75,o),
(459,111,cs)
);
}
);
width = 756;
}
);
unicode = 247;
}
{
glyphname = tilde;
layers = (
{
hints = (
{
horizontal = 1;
place = (629,64);
type = Stem;
}
);
layerId = "C81813BF-B5F5-4CE8-9C14-91E07284E92C";
shapes = (
{
closed = 1;
nodes = (
(350,697,l),
(343,669,o),
(321,644,o),
(294,644,cs),
(276,644,o),
(256,653,o),
(230,669,cs),
(206,684,o),
(187,693,o),
(158,693,cs),
(105,693,o),
(58,640,o),
(47,575,c),
(79,575,l),
(86,603,o),
(107,628,o),
(134,628,cs),
(154,628,o),
(176,619,o),
(199,605,cs),
(225,589,o),
(247,579,o),
(270,579,cs),
(323,579,o),
(370,632,o),
(382,697,c)
);
}
);
width = 400;
}
);
unicode = 732;
}
{
glyphname = endash;
layers = (
{
hints = (
{
horizontal = 1;
place = (192,64);
type = Stem;
}
);
layerId = "C81813BF-B5F5-4CE8-9C14-91E07284E92C";
shapes = (
{
closed = 1;
nodes = (
(57,285,l),
(41,223,l),
(497,223,l),
(513,285,l)
);
}
);
width = 550;
}
);
unicode = 8211;
}
{
glyphname = emdash;
layers = (
{
hints = (
{
horizontal = 1;
place = (192,64);
type = Stem;
}
);
layerId = "C81813BF-B5F5-4CE8-9C14-91E07284E92C";
shapes = (
{
closed = 1;
nodes = (
(57,285,l),
(41,223,l),
(1037,223,l),
(1053,285,l)
);
}
);
width = 1090;
}
);
unicode = 8212;
}
{
glyphname = quoteleft;
layers = (
{
hints = (
{
place = (119,126);
type = Stem;
}
);
layerId = "C81813BF-B5F5-4CE8-9C14-91E07284E92C";
shapes = (
{
closed = 1;
nodes = (
(281,741,l),
(171,694,o),
(122,600,o),
(122,536,cs),
(122,500,o),
(141,477,o),
(181,477,cs),
(217,477,o),
(247,504,o),
(247,546,cs),
(247,570,o),
(233,591,o),
(187,598,c),
(211,656,o),
(257,688,o),
(301,716,c)
);
}
);
width = 232;
}
);
unicode = 8216;
}
{
glyphname = quoteright;
layers = (
{
hints = (
{
place = (138,126);
type = Stem;
}
);
layerId = "C81813BF-B5F5-4CE8-9C14-91E07284E92C";
shapes = (
{
closed = 1;
nodes = (
(267,717,o),
(248,740,o),
(208,740,cs),
(172,740,o),
(142,713,o),
(142,671,cs),
(142,647,o),
(156,626,o),
(202,619,c),
(178,561,o),
(132,529,o),
(88,501,c),
(108,476,l),
(218,523,o),
(267,617,o),
(267,681,cs)
);
}
);
width = 232;
}
);
unicode = 8217;
}
{
glyphname = quotesinglbase;
layers = (
{
hints = (
{
place = (138,126);
type = Stem;
}
);
layerId = "C81813BF-B5F5-4CE8-9C14-91E07284E92C";
shapes = (
{
closed = 1;
nodes = (
(154,97,o),
(135,120,o),
(95,120,cs),
(59,120,o),
(29,93,o),
(29,51,cs),
(29,27,o),
(43,6,o),
(89,-1,c),
(65,-59,o),
(19,-91,o),
(-25,-119,c),
(-5,-144,l),
(105,-97,o),
(154,-3,o),
(154,61,cs)
);
}
);
width = 232;
}
);
unicode = 8218;
}
{
glyphname = quotedblleft;
layers = (
{
hints = (
{
place = (119,126);
type = Stem;
},
{
place = (288,126);
type = Stem;
}
);
layerId = "C81813BF-B5F5-4CE8-9C14-91E07284E92C";
shapes = (
{
closed = 1;
nodes = (
(457,741,l),
(347,694,o),
(298,600,o),
(298,536,cs),
(298,500,o),
(317,477,o),
(357,477,cs),
(393,477,o),
(423,504,o),
(423,546,cs),
(423,570,o),
(409,591,o),
(363,598,c),
(387,656,o),
(433,688,o),
(477,716,c)
);
},
{
closed = 1;
nodes = (
(281,741,l),
(171,694,o),
(122,600,o),
(122,536,cs),
(122,500,o),
(141,477,o),
(181,477,cs),
(217,477,o),
(247,504,o),
(247,546,cs),
(247,570,o),
(233,591,o),
(187,598,c),
(211,656,o),
(257,688,o),
(301,716,c)
);
}
);
width = 408;
}
);
unicode = 8220;
}
{
glyphname = quotedblright;
layers = (
{
hints = (
{
place = (139,126);
type = Stem;
},
{
place = (308,126);
type = Stem;
}
);
layerId = "C81813BF-B5F5-4CE8-9C14-91E07284E92C";
shapes = (
{
closed = 1;
nodes = (
(443,717,o),
(424,740,o),
(384,740,cs),
(348,740,o),
(318,713,o),
(318,671,cs),
(318,647,o),
(332,626,o),
(378,619,c),
(354,561,o),
(308,529,o),
(264,501,c),
(284,476,l),
(394,523,o),
(443,617,o),
(443,681,cs)
);
},
{
closed = 1;
nodes = (
(267,717,o),
(248,740,o),
(208,740,cs),
(172,740,o),
(142,713,o),
(142,671,cs),
(142,647,o),
(156,626,o),
(202,619,c),
(178,561,o),
(132,529,o),
(88,501,c),
(108,476,l),
(218,523,o),
(267,617,o),
(267,681,cs)
);
}
);
width = 408;
}
);
unicode = 8221;
}
{
glyphname = quotedblbase;
layers = (
{
hints = (
{
place = (139,126);
type = Stem;
},
{
place = (308,126);
type = Stem;
}
);
layerId = "C81813BF-B5F5-4CE8-9C14-91E07284E92C";
shapes = (
{
closed = 1;
nodes = (
(330,97,o),
(311,120,o),
(271,120,cs),
(235,120,o),
(205,93,o),
(205,51,cs),
(205,27,o),
(219,6,o),
(265,-1,c),
(241,-59,o),
(195,-91,o),
(151,-119,c),
(171,-144,l),
(281,-97,o),
(330,-3,o),
(330,61,cs)
);
},
{
closed = 1;
nodes = (
(154,97,o),
(135,120,o),
(95,120,cs),
(59,120,o),
(29,93,o),
(29,51,cs),
(29,27,o),
(43,6,o),
(89,-1,c),
(65,-59,o),
(19,-91,o),
(-25,-119,c),
(-5,-144,l),
(105,-97,o),
(154,-3,o),
(154,61,cs)
);
}
);
width = 408;
}
);
unicode = 8222;
}
{
glyphname = bullet;
layers = (
{
layerId = "C81813BF-B5F5-4CE8-9C14-91E07284E92C";
shapes = (
{
closed = 1;
nodes = (
(405,456,o),
(318,544,o),
(212,544,cs),
(105,544,o),
(18,456,o),
(18,350,cs),
(18,244,o),
(105,156,o),
(212,156,cs),
(318,156,o),
(405,244,o),
(405,350,cs)
);
}
);
width = 423;
}
);
unicode = 8226;
}
{
glyphname = ellipsis;
layers = (
{
hints = (
{
horizontal = 1;
place = (-6,119);
type = Stem;
},
{
place = (32,118);
type = Stem;
},
{
place = (349,118);
type = Stem;
},
{
place = (666,118);
type = Stem;
}
);
layerId = "C81813BF-B5F5-4CE8-9C14-91E07284E92C";
shapes = (
{
closed = 1;
nodes = (
(733,92,o),
(705,121,o),
(669,121,cs),
(634,121,o),
(607,92,o),
(607,58,cs),
(607,23,o),
(634,-6,o),
(669,-6,cs),
(705,-6,o),
(733,23,o),
(733,58,cs)
);
},
{
closed = 1;
nodes = (
(453,92,o),
(425,121,o),
(389,121,cs),
(354,121,o),
(327,92,o),
(327,58,cs),
(327,23,o),
(354,-6,o),
(389,-6,cs),
(425,-6,o),
(453,23,o),
(453,58,cs)
);
},
{
closed = 1;
nodes = (
(173,92,o),
(145,121,o),
(109,121,cs),
(74,121,o),
(47,92,o),
(47,58,cs),
(47,23,o),
(74,-6,o),
(109,-6,cs),
(145,-6,o),
(173,23,o),
(173,58,cs)
);
}
);
width = 840;
}
);
unicode = 8230;
}
{
glyphname = Euro;
layers = (
{
layerId = "C81813BF-B5F5-4CE8-9C14-91E07284E92C";
shapes = (
{
closed = 1;
nodes = (
(595,651,o),
(534,694,o),
(443,694,c),
(309,693,o),
(201,585,o),
(140,425,c),
(68,425,l),
(60,380,l),
(127,380,l),
(120,356,o),
(115,329,o),
(111,302,c),
(45,302,l),
(36,257,l),
(106,257,l),
(105,244,o),
(104,231,o),
(104,219,cs),
(104,80,o),
(176,-9,o),
(311,-9,cs),
(389,-9,o),
(483,35,o),
(529,118,c),
(505,150,l),
(452,80,o),
(395,51,o),
(334,51,cs),
(239,51,o),
(198,122,o),
(198,213,cs),
(198,228,o),
(199,242,o),
(201,257,c),
(388,257,l),
(397,302,l),
(206,302,l),
(210,329,o),
(215,359,o),
(221,380,c),
(443,380,l),
(451,425,l),
(232,425,l),
(276,564,o),
(350,647,o),
(431,647,cs),
(463,647,o),
(489,635,o),
(495,630,c),
(492,617,o),
(484,594,o),
(484,575,cs),
(484,548,o),
(501,528,o),
(534,528,cs),
(569,528,o),
(595,558,o),
(595,597,cs)
);
}
);
width = 577;
}
);
unicode = 8364;
}
{
glyphname = minus;
layers = (
{
hints = (
{
horizontal = 1;
place = (262,64);
type = Stem;
}
);
layerId = "C81813BF-B5F5-4CE8-9C14-91E07284E92C";
shapes = (
{
closed = 1;
nodes = (
(656,324,l),
(134,324,l),
(134,262,l),
(656,262,l)
);
}
);
width = 756;
}
);
unicode = 8722;
}
